<svg version="1.1" viewBox="0.0 0.0 405.0 250.0" fill="none" stroke="none" stroke-linecap="square" stroke-miterlimit="10" width="405" height="250" xmlns:xlink="http://www.w3.org/1999/xlink" xmlns="http://www.w3.org/2000/svg"><path fill="#ffffff" d="M0 0L405.0 0L405.0 250.0L0 250.0L0 0Z" fill-rule="nonzero"/><path stroke="#333333" stroke-width="1.0" stroke-linecap="butt" d="M40.5 219.5L392.5 219.5" fill-rule="nonzero"/><path stroke="#cccccc" stroke-width="1.0" stroke-linecap="butt" d="M40.5 182.5L392.5 182.5" fill-rule="nonzero"/><path stroke="#cccccc" stroke-width="1.0" stroke-linecap="butt" d="M40.5 144.5L392.5 144.5" fill-rule="nonzero"/><path stroke="#cccccc" stroke-width="1.0" stroke-linecap="butt" d="M40.5 107.5L392.5 107.5" fill-rule="nonzero"/><path stroke="#cccccc" stroke-width="1.0" stroke-linecap="butt" d="M40.5 69.5L392.5 69.5" fill-rule="nonzero"/><path stroke="#cccccc" stroke-width="1.0" stroke-linecap="butt" d="M40.5 32.5L392.5 32.5" fill-rule="nonzero"/><clipPath id="id_0"><path d="M40.765625 32.5L392.5 32.5L392.5 219.5L40.765625 219.5L40.765625 32.5Z" clip-rule="nonzero"/></clipPath><path stroke="#000000" stroke-width="0.0" stroke-linecap="butt" stroke-opacity="0.0" clip-path="url(#id_0)" d="M122.0 220.0L69.0 220.0L69.0 46.0C69.0 44.89543 69.89543 44.0 71.0 44.0L120.0 44.0C121.10457 44.0 122.0 44.89543 122.0 46.0Z" fill-rule="nonzero"/><path fill="#b2d89c" clip-path="url(#id_0)" d="M122.0 220.0L69.0 220.0L69.0 46.0C69.0 44.89543 69.89543 44.0 71.0 44.0L120.0 44.0C121.10457 44.0 122.0 44.89543 122.0 46.0Z" fill-rule="nonzero"/><path stroke="#000000" stroke-width="0.0" stroke-linecap="butt" stroke-opacity="0.0" clip-path="url(#id_0)" d="M203.0 220.0L150.0 220.0L150.0 99.0C150.0 97.89543 150.89543 97.0 152.0 97.0L201.0 97.0C202.10457 97.0 203.0 97.89543 203.0 99.0Z" fill-rule="nonzero"/><path fill="#b2d89c" clip-path="url(#id_0)" d="M203.0 220.0L150.0 220.0L150.0 99.0C150.0 97.89543 150.89543 97.0 152.0 97.0L201.0 97.0C202.10457 97.0 203.0 97.89543 203.0 99.0Z" fill-rule="nonzero"/><path stroke="#000000" stroke-width="0.0" stroke-linecap="butt" stroke-opacity="0.0" clip-path="url(#id_0)" d="M284.0 220.0L231.0 220.0L231.0 155.0C231.0 153.89543 231.89543 153.0 233.0 153.0L282.0 153.0C283.10458 153.0 284.0 153.89543 284.0 155.0Z" fill-rule="nonzero"/><path fill="#b2d89c" clip-path="url(#id_0)" d="M284.0 220.0L231.0 220.0L231.0 155.0C231.0 153.89543 231.89543 153.0 233.0 153.0L282.0 153.0C283.10458 153.0 284.0 153.89543 284.0 155.0Z" fill-rule="nonzero"/><path stroke="#000000" stroke-width="0.0" stroke-linecap="butt" stroke-opacity="0.0" clip-path="url(#id_0)" d="M365.0 220.0L312.0 220.0L312.0 212.0C312.0 210.89543 312.89542 210.0 314.0 210.0L363.0 210.0C364.10458 210.0 365.0 210.89543 365.0 212.0Z" fill-rule="nonzero"/><path fill="#b2d89c" clip-path="url(#id_0)" d="M365.0 220.0L312.0 220.0L312.0 212.0C312.0 210.89543 312.89542 210.0 314.0 210.0L363.0 210.0C364.10458 210.0 365.0 210.89543 365.0 212.0Z" fill-rule="nonzero"/><path stroke="#b2d89c" stroke-width="3.0" stroke-linejoin="round" stroke-linecap="round" d="M87.9375 52.202583L88.203125 52.202583Q88.203125 52.390083 88.203125 52.421333L88.21875 53.28071L88.171875 54.046333L88.203125 54.921333L88.203125 55.59321L88.21875 56.515083Q88.21875 56.733833 88.203125 57.171333L88.328125 57.18696L88.734375 57.18696L89.140625 57.18696L89.46875 57.171333Q89.484375 57.358833 89.484375 57.452583Q89.484375 57.53071 89.46875 57.71821Q89.109375 57.733833 89.078125 57.733833L88.78125 57.733833L88.546875 57.733833Q88.453125 57.733833 88.203125 57.71821Q88.1875 58.546333 88.203125 59.921333Q88.171875 59.96821 88.125 59.96821L87.765625 59.983833Q87.640625 59.983833 87.40625 59.96821Q87.421875 59.28071 87.421875 58.983833Q87.421875 58.71821 87.40625 58.49946Q87.390625 58.108833 87.390625 58.046333Q87.390625 57.93696 87.40625 57.71821Q87.15625 57.74946 87.03125 57.74946Q86.953125 57.74946 86.859375 57.733833Q86.28125 57.702583 86.203125 57.702583Q86.125 57.702583 85.828125 57.74946L85.21875 57.71821L84.890625 57.733833L84.671875 57.702583L84.390625 57.74946L84.328125 57.71821Q84.328125 57.59321 84.328125 57.515083Q84.328125 57.452583 84.328125 57.327583Q84.5 57.108833 84.9375 56.452583L86.078125 54.796333Q86.5 54.171333 86.78125 53.796333Q87.078125 53.421333 87.359375 52.99946Q87.640625 52.577583 87.9375 52.202583ZM87.40625 57.171333L87.40625 56.21821L87.40625 55.452583L87.40625 53.483833Q86.921875 54.12446 86.0625 55.40571Q85.09375 56.87446 84.90625 57.171333Q85.171875 57.171333 85.296875 57.171333L86.90625 57.18696Q87.078125 57.18696 87.40625 57.171333ZM90.640625 52.43696Q91.359375 52.40571 92.578125 52.40571Q93.140625 52.40571 93.859375 52.421333Q94.296875 52.43696 94.421875 52.43696L95.0 52.43696L95.125 52.43696Q95.171875 52.483833 95.171875 52.53071Q95.171875 52.59321 95.046875 52.858833Q94.96875 52.983833 94.46875 54.140083Q94.21875 54.71821 93.875 55.65571L93.125 57.733833Q92.859375 58.452583 92.796875 58.733833L92.65625 59.28071Q92.578125 59.515083 92.578125 59.62446Q92.578125 59.71821 92.671875 59.90571Q92.609375 59.99946 92.359375 59.99946Q92.25 59.99946 92.140625 59.90571Q92.1875 59.56196 92.375 58.983833Q92.4375 58.78071 92.609375 58.18696Q92.78125 57.577583 92.9375 57.108833L93.609375 55.296333Q93.890625 54.515083 94.171875 53.87446Q94.265625 53.65571 94.3125 53.56196Q94.4375 53.34321 94.4375 53.202583L94.359375 53.21821L94.296875 53.21821L93.515625 53.18696Q93.484375 53.18696 93.265625 53.202583Q93.0625 53.21821 92.953125 53.21821L92.046875 53.202583L91.765625 53.202583L91.390625 53.202583Q91.046875 53.18696 90.953125 53.28071Q90.875 53.358833 90.859375 53.71821Q90.859375 53.796333 90.8125 53.890083Q90.75 53.90571 90.71875 53.90571Q90.65625 53.90571 90.546875 53.858833Q90.5625 53.702583 90.5625 53.640083L90.5625 53.46821L90.546875 53.140083Q90.546875 52.71821 90.578125 52.577583Q90.59375 52.515083 90.640625 52.43696ZM98.15625 60.233833Q98.203125 60.12446 98.265625 60.015083Q98.34375 59.921333 98.453125 59.71821Q98.5 59.65571 98.890625 59.06196Q99.28125 58.46821 99.4375 58.233833Q102.046875 53.796333 103.21875 52.202583L103.28125 52.202583Q103.5625 52.21821 103.59375 52.21821L101.03125 56.233833L99.875 58.15571L98.515625 60.21821L98.484375 60.21821Q98.453125 60.21821 98.203125 60.233833L98.15625 60.233833ZM99.421875 54.24946Q99.421875 55.171333 98.953125 55.733833Q98.484375 56.28071 97.921875 56.28071Q97.328125 56.28071 96.875 55.74946Q96.4375 55.21821 96.4375 54.31196Q96.4375 53.671333 96.65625 53.12446Q96.84375 52.71821 97.1875 52.46821Q97.546875 52.202583 97.953125 52.202583Q98.359375 52.202583 98.71875 52.46821Q99.078125 52.733833 99.28125 53.28071Q99.421875 53.62446 99.421875 54.24946ZM98.765625 54.358833Q98.765625 53.49946 98.71875 53.233833Q98.640625 52.78071 98.4375 52.59321Q98.234375 52.40571 97.953125 52.40571Q97.546875 52.40571 97.328125 52.74946Q97.109375 53.09321 97.109375 54.390083Q97.109375 55.40571 97.328125 55.733833Q97.5625 56.06196 97.90625 56.06196Q98.3125 56.06196 98.515625 55.78071Q98.765625 55.421333 98.765625 54.358833ZM105.46875 57.921333Q105.46875 58.84321 105.0 59.390083Q104.53125 59.93696 103.96875 59.93696Q103.390625 59.93696 102.9375 59.40571Q102.484375 58.87446 102.484375 57.96821Q102.484375 57.327583 102.71875 56.78071Q102.890625 56.37446 103.234375 56.12446Q103.59375 55.858833 104.0 55.858833Q104.40625 55.858833 104.765625 56.12446Q105.125 56.390083 105.328125 56.93696Q105.46875 57.28071 105.46875 57.921333ZM104.8125 58.015083Q104.8125 57.15571 104.765625 56.890083Q104.6875 56.43696 104.484375 56.265083Q104.28125 56.077583 104.0 56.077583Q103.609375 56.077583 103.375 56.421333Q103.15625 56.74946 103.15625 58.046333Q103.15625 59.077583 103.375 59.40571Q103.609375 59.733833 103.96875 59.733833Q104.359375 59.733833 104.5625 59.452583Q104.8125 59.077583 104.8125 58.015083Z" fill-rule="nonzero"/><path fill="#000000" d="M87.9375 52.202583L88.203125 52.202583Q88.203125 52.390083 88.203125 52.421333L88.21875 53.28071L88.171875 54.046333L88.203125 54.921333L88.203125 55.59321L88.21875 56.515083Q88.21875 56.733833 88.203125 57.171333L88.328125 57.18696L88.734375 57.18696L89.140625 57.18696L89.46875 57.171333Q89.484375 57.358833 89.484375 57.452583Q89.484375 57.53071 89.46875 57.71821Q89.109375 57.733833 89.078125 57.733833L88.78125 57.733833L88.546875 57.733833Q88.453125 57.733833 88.203125 57.71821Q88.1875 58.546333 88.203125 59.921333Q88.171875 59.96821 88.125 59.96821L87.765625 59.983833Q87.640625 59.983833 87.40625 59.96821Q87.421875 59.28071 87.421875 58.983833Q87.421875 58.71821 87.40625 58.49946Q87.390625 58.108833 87.390625 58.046333Q87.390625 57.93696 87.40625 57.71821Q87.15625 57.74946 87.03125 57.74946Q86.953125 57.74946 86.859375 57.733833Q86.28125 57.702583 86.203125 57.702583Q86.125 57.702583 85.828125 57.74946L85.21875 57.71821L84.890625 57.733833L84.671875 57.702583L84.390625 57.74946L84.328125 57.71821Q84.328125 57.59321 84.328125 57.515083Q84.328125 57.452583 84.328125 57.327583Q84.5 57.108833 84.9375 56.452583L86.078125 54.796333Q86.5 54.171333 86.78125 53.796333Q87.078125 53.421333 87.359375 52.99946Q87.640625 52.577583 87.9375 52.202583ZM87.40625 57.171333L87.40625 56.21821L87.40625 55.452583L87.40625 53.483833Q86.921875 54.12446 86.0625 55.40571Q85.09375 56.87446 84.90625 57.171333Q85.171875 57.171333 85.296875 57.171333L86.90625 57.18696Q87.078125 57.18696 87.40625 57.171333ZM90.640625 52.43696Q91.359375 52.40571 92.578125 52.40571Q93.140625 52.40571 93.859375 52.421333Q94.296875 52.43696 94.421875 52.43696L95.0 52.43696L95.125 52.43696Q95.171875 52.483833 95.171875 52.53071Q95.171875 52.59321 95.046875 52.858833Q94.96875 52.983833 94.46875 54.140083Q94.21875 54.71821 93.875 55.65571L93.125 57.733833Q92.859375 58.452583 92.796875 58.733833L92.65625 59.28071Q92.578125 59.515083 92.578125 59.62446Q92.578125 59.71821 92.671875 59.90571Q92.609375 59.99946 92.359375 59.99946Q92.25 59.99946 92.140625 59.90571Q92.1875 59.56196 92.375 58.983833Q92.4375 58.78071 92.609375 58.18696Q92.78125 57.577583 92.9375 57.108833L93.609375 55.296333Q93.890625 54.515083 94.171875 53.87446Q94.265625 53.65571 94.3125 53.56196Q94.4375 53.34321 94.4375 53.202583L94.359375 53.21821L94.296875 53.21821L93.515625 53.18696Q93.484375 53.18696 93.265625 53.202583Q93.0625 53.21821 92.953125 53.21821L92.046875 53.202583L91.765625 53.202583L91.390625 53.202583Q91.046875 53.18696 90.953125 53.28071Q90.875 53.358833 90.859375 53.71821Q90.859375 53.796333 90.8125 53.890083Q90.75 53.90571 90.71875 53.90571Q90.65625 53.90571 90.546875 53.858833Q90.5625 53.702583 90.5625 53.640083L90.5625 53.46821L90.546875 53.140083Q90.546875 52.71821 90.578125 52.577583Q90.59375 52.515083 90.640625 52.43696ZM98.15625 60.233833Q98.203125 60.12446 98.265625 60.015083Q98.34375 59.921333 98.453125 59.71821Q98.5 59.65571 98.890625 59.06196Q99.28125 58.46821 99.4375 58.233833Q102.046875 53.796333 103.21875 52.202583L103.28125 52.202583Q103.5625 52.21821 103.59375 52.21821L101.03125 56.233833L99.875 58.15571L98.515625 60.21821L98.484375 60.21821Q98.453125 60.21821 98.203125 60.233833L98.15625 60.233833ZM99.421875 54.24946Q99.421875 55.171333 98.953125 55.733833Q98.484375 56.28071 97.921875 56.28071Q97.328125 56.28071 96.875 55.74946Q96.4375 55.21821 96.4375 54.31196Q96.4375 53.671333 96.65625 53.12446Q96.84375 52.71821 97.1875 52.46821Q97.546875 52.202583 97.953125 52.202583Q98.359375 52.202583 98.71875 52.46821Q99.078125 52.733833 99.28125 53.28071Q99.421875 53.62446 99.421875 54.24946ZM98.765625 54.358833Q98.765625 53.49946 98.71875 53.233833Q98.640625 52.78071 98.4375 52.59321Q98.234375 52.40571 97.953125 52.40571Q97.546875 52.40571 97.328125 52.74946Q97.109375 53.09321 97.109375 54.390083Q97.109375 55.40571 97.328125 55.733833Q97.5625 56.06196 97.90625 56.06196Q98.3125 56.06196 98.515625 55.78071Q98.765625 55.421333 98.765625 54.358833ZM105.46875 57.921333Q105.46875 58.84321 105.0 59.390083Q104.53125 59.93696 103.96875 59.93696Q103.390625 59.93696 102.9375 59.40571Q102.484375 58.87446 102.484375 57.96821Q102.484375 57.327583 102.71875 56.78071Q102.890625 56.37446 103.234375 56.12446Q103.59375 55.858833 104.0 55.858833Q104.40625 55.858833 104.765625 56.12446Q105.125 56.390083 105.328125 56.93696Q105.46875 57.28071 105.46875 57.921333ZM104.8125 58.015083Q104.8125 57.15571 104.765625 56.890083Q104.6875 56.43696 104.484375 56.265083Q104.28125 56.077583 104.0 56.077583Q103.609375 56.077583 103.375 56.421333Q103.15625 56.74946 103.15625 58.046333Q103.15625 59.077583 103.375 59.40571Q103.609375 59.733833 103.96875 59.733833Q104.359375 59.733833 104.5625 59.452583Q104.8125 59.077583 104.8125 58.015083Z" fill-rule="nonzero"/><path stroke="#b2d89c" stroke-width="3.0" stroke-linejoin="round" stroke-linecap="round" d="M166.0 107.03573L165.8125 106.92635Q166.17188 106.03573 166.6875 105.67635Q167.20312 105.30135 167.875 105.30135Q168.51562 105.30135 168.89062 105.5826Q169.45312 106.00448 169.45312 106.53573Q169.45312 106.9576 169.15625 107.3951Q168.875 107.8326 168.15625 108.36385L168.29688 108.36385Q168.75 108.36385 169.17188 108.59823Q169.59375 108.81698 169.84375 109.31698Q170.09375 109.80135 170.09375 110.36385Q170.09375 111.48885 169.26562 112.30135Q168.4375 113.11385 167.15625 113.11385Q166.17188 113.11385 165.71875 112.81698Q165.46875 112.67635 165.46875 112.4576Q165.46875 112.3326 165.5625 112.23885Q165.67188 112.12948 165.82812 112.12948Q166.01562 112.12948 166.29688 112.34823Q166.9375 112.84823 167.42188 112.84823Q168.14062 112.84823 168.70312 112.23885Q169.26562 111.61385 169.26562 110.69198Q169.26562 109.91073 168.89062 109.42635Q168.51562 108.92635 167.9375 108.92635Q167.5 108.92635 167.03125 109.3326L166.89062 109.09823Q167.1875 108.84823 167.42188 108.67635Q168.14062 108.1451 168.48438 107.6451Q168.73438 107.28573 168.73438 107.00448Q168.73438 106.53573 168.40625 106.22323Q168.07812 105.91073 167.54688 105.91073Q166.67188 105.91073 166.0 107.03573ZM172.0 107.03573L171.8125 106.92635Q172.17188 106.03573 172.6875 105.67635Q173.20312 105.30135 173.875 105.30135Q174.51562 105.30135 174.89062 105.5826Q175.45312 106.00448 175.45312 106.53573Q175.45312 106.9576 175.15625 107.3951Q174.875 107.8326 174.15625 108.36385L174.29688 108.36385Q174.75 108.36385 175.17188 108.59823Q175.59375 108.81698 175.84375 109.31698Q176.09375 109.80135 176.09375 110.36385Q176.09375 111.48885 175.26562 112.30135Q174.4375 113.11385 173.15625 113.11385Q172.17188 113.11385 171.71875 112.81698Q171.46875 112.67635 171.46875 112.4576Q171.46875 112.3326 171.5625 112.23885Q171.67188 112.12948 171.82812 112.12948Q172.01562 112.12948 172.29688 112.34823Q172.9375 112.84823 173.42188 112.84823Q174.14062 112.84823 174.70312 112.23885Q175.26562 111.61385 175.26562 110.69198Q175.26562 109.91073 174.89062 109.42635Q174.51562 108.92635 173.9375 108.92635Q173.5 108.92635 173.03125 109.3326L172.89062 109.09823Q173.1875 108.84823 173.42188 108.67635Q174.14062 108.1451 174.48438 107.6451Q174.73438 107.28573 174.73438 107.00448Q174.73438 106.53573 174.40625 106.22323Q174.07812 105.91073 173.54688 105.91073Q172.67188 105.91073 172.0 107.03573ZM179.15625 113.3326Q179.20312 113.22323 179.26562 113.11385Q179.34375 113.0201 179.45312 112.81698Q179.5 112.75448 179.89062 112.16073Q180.28125 111.56698 180.4375 111.3326Q183.04688 106.8951 184.21875 105.30135L184.28125 105.30135Q184.5625 105.31698 184.59375 105.31698L182.03125 109.3326L180.875 111.25448L179.51562 113.31698L179.48438 113.31698Q179.45312 113.31698 179.20312 113.3326L179.15625 113.3326ZM180.42188 107.34823Q180.42188 108.2701 179.95312 108.8326Q179.48438 109.37948 178.92188 109.37948Q178.32812 109.37948 177.875 108.84823Q177.4375 108.31698 177.4375 107.41073Q177.4375 106.7701 177.65625 106.22323Q177.84375 105.81698 178.1875 105.56698Q178.54688 105.30135 178.95312 105.30135Q179.35938 105.30135 179.71875 105.56698Q180.07812 105.8326 180.28125 106.37948Q180.42188 106.72323 180.42188 107.34823ZM179.76562 107.4576Q179.76562 106.59823 179.71875 106.3326Q179.64062 105.87948 179.4375 105.69198Q179.23438 105.50448 178.95312 105.50448Q178.54688 105.50448 178.32812 105.84823Q178.10938 106.19198 178.10938 107.48885Q178.10938 108.50448 178.32812 108.8326Q178.5625 109.16073 178.90625 109.16073Q179.3125 109.16073 179.51562 108.87948Q179.76562 108.5201 179.76562 107.4576ZM186.46875 111.0201Q186.46875 111.94198 186.0 112.48885Q185.53125 113.03573 184.96875 113.03573Q184.39062 113.03573 183.9375 112.50448Q183.48438 111.97323 183.48438 111.06698Q183.48438 110.42635 183.71875 109.87948Q183.89062 109.47323 184.23438 109.22323Q184.59375 108.9576 185.0 108.9576Q185.40625 108.9576 185.76562 109.22323Q186.125 109.48885 186.32812 110.03573Q186.46875 110.37948 186.46875 111.0201ZM185.8125 111.11385Q185.8125 110.25448 185.76562 109.98885Q185.6875 109.53573 185.48438 109.36385Q185.28125 109.17635 185.0 109.17635Q184.60938 109.17635 184.375 109.5201Q184.15625 109.84823 184.15625 111.1451Q184.15625 112.17635 184.375 112.50448Q184.60938 112.8326 184.96875 112.8326Q185.35938 112.8326 185.5625 112.55135Q185.8125 112.17635 185.8125 111.11385Z" fill-rule="nonzero"/><path fill="#000000" d="M166.0 107.03573L165.8125 106.92635Q166.17188 106.03573 166.6875 105.67635Q167.20312 105.30135 167.875 105.30135Q168.51562 105.30135 168.89062 105.5826Q169.45312 106.00448 169.45312 106.53573Q169.45312 106.9576 169.15625 107.3951Q168.875 107.8326 168.15625 108.36385L168.29688 108.36385Q168.75 108.36385 169.17188 108.59823Q169.59375 108.81698 169.84375 109.31698Q170.09375 109.80135 170.09375 110.36385Q170.09375 111.48885 169.26562 112.30135Q168.4375 113.11385 167.15625 113.11385Q166.17188 113.11385 165.71875 112.81698Q165.46875 112.67635 165.46875 112.4576Q165.46875 112.3326 165.5625 112.23885Q165.67188 112.12948 165.82812 112.12948Q166.01562 112.12948 166.29688 112.34823Q166.9375 112.84823 167.42188 112.84823Q168.14062 112.84823 168.70312 112.23885Q169.26562 111.61385 169.26562 110.69198Q169.26562 109.91073 168.89062 109.42635Q168.51562 108.92635 167.9375 108.92635Q167.5 108.92635 167.03125 109.3326L166.89062 109.09823Q167.1875 108.84823 167.42188 108.67635Q168.14062 108.1451 168.48438 107.6451Q168.73438 107.28573 168.73438 107.00448Q168.73438 106.53573 168.40625 106.22323Q168.07812 105.91073 167.54688 105.91073Q166.67188 105.91073 166.0 107.03573ZM172.0 107.03573L171.8125 106.92635Q172.17188 106.03573 172.6875 105.67635Q173.20312 105.30135 173.875 105.30135Q174.51562 105.30135 174.89062 105.5826Q175.45312 106.00448 175.45312 106.53573Q175.45312 106.9576 175.15625 107.3951Q174.875 107.8326 174.15625 108.36385L174.29688 108.36385Q174.75 108.36385 175.17188 108.59823Q175.59375 108.81698 175.84375 109.31698Q176.09375 109.80135 176.09375 110.36385Q176.09375 111.48885 175.26562 112.30135Q174.4375 113.11385 173.15625 113.11385Q172.17188 113.11385 171.71875 112.81698Q171.46875 112.67635 171.46875 112.4576Q171.46875 112.3326 171.5625 112.23885Q171.67188 112.12948 171.82812 112.12948Q172.01562 112.12948 172.29688 112.34823Q172.9375 112.84823 173.42188 112.84823Q174.14062 112.84823 174.70312 112.23885Q175.26562 111.61385 175.26562 110.69198Q175.26562 109.91073 174.89062 109.42635Q174.51562 108.92635 173.9375 108.92635Q173.5 108.92635 173.03125 109.3326L172.89062 109.09823Q173.1875 108.84823 173.42188 108.67635Q174.14062 108.1451 174.48438 107.6451Q174.73438 107.28573 174.73438 107.00448Q174.73438 106.53573 174.40625 106.22323Q174.07812 105.91073 173.54688 105.91073Q172.67188 105.91073 172.0 107.03573ZM179.15625 113.3326Q179.20312 113.22323 179.26562 113.11385Q179.34375 113.0201 179.45312 112.81698Q179.5 112.75448 179.89062 112.16073Q180.28125 111.56698 180.4375 111.3326Q183.04688 106.8951 184.21875 105.30135L184.28125 105.30135Q184.5625 105.31698 184.59375 105.31698L182.03125 109.3326L180.875 111.25448L179.51562 113.31698L179.48438 113.31698Q179.45312 113.31698 179.20312 113.3326L179.15625 113.3326ZM180.42188 107.34823Q180.42188 108.2701 179.95312 108.8326Q179.48438 109.37948 178.92188 109.37948Q178.32812 109.37948 177.875 108.84823Q177.4375 108.31698 177.4375 107.41073Q177.4375 106.7701 177.65625 106.22323Q177.84375 105.81698 178.1875 105.56698Q178.54688 105.30135 178.95312 105.30135Q179.35938 105.30135 179.71875 105.56698Q180.07812 105.8326 180.28125 106.37948Q180.42188 106.72323 180.42188 107.34823ZM179.76562 107.4576Q179.76562 106.59823 179.71875 106.3326Q179.64062 105.87948 179.4375 105.69198Q179.23438 105.50448 178.95312 105.50448Q178.54688 105.50448 178.32812 105.84823Q178.10938 106.19198 178.10938 107.48885Q178.10938 108.50448 178.32812 108.8326Q178.5625 109.16073 178.90625 109.16073Q179.3125 109.16073 179.51562 108.87948Q179.76562 108.5201 179.76562 107.4576ZM186.46875 111.0201Q186.46875 111.94198 186.0 112.48885Q185.53125 113.03573 184.96875 113.03573Q184.39062 113.03573 183.9375 112.50448Q183.48438 111.97323 183.48438 111.06698Q183.48438 110.42635 183.71875 109.87948Q183.89062 109.47323 184.23438 109.22323Q184.59375 108.9576 185.0 108.9576Q185.40625 108.9576 185.76562 109.22323Q186.125 109.48885 186.32812 110.03573Q186.46875 110.37948 186.46875 111.0201ZM185.8125 111.11385Q185.8125 110.25448 185.76562 109.98885Q185.6875 109.53573 185.48438 109.36385Q185.28125 109.17635 185.0 109.17635Q184.60938 109.17635 184.375 109.5201Q184.15625 109.84823 184.15625 111.1451Q184.15625 112.17635 184.375 112.50448Q184.60938 112.8326 184.96875 112.8326Q185.35938 112.8326 185.5625 112.55135Q185.8125 112.17635 185.8125 111.11385Z" fill-rule="nonzero"/><path stroke="#b2d89c" stroke-width="3.0" stroke-linejoin="round" stroke-linecap="round" d="M250.25 168.33376L247.57812 168.33376Q247.5625 168.28688 247.5625 168.25563Q247.5625 168.14626 247.59375 168.115Q247.64062 168.06813 247.85938 168.03688Q248.20312 167.95876 248.42188 167.865Q248.46875 167.74 248.46875 167.615L248.46875 167.25563Q248.46875 167.19313 248.48438 166.66188Q248.5 166.47438 248.5 164.94313L248.51562 163.56813L248.5 162.77126Q248.5 162.58376 248.51562 161.66188Q247.1875 162.59938 247.0625 162.59938Q247.01562 162.59938 246.95312 162.5525Q246.90625 162.50563 246.90625 162.45876Q246.90625 162.39626 246.9375 162.365Q247.03125 162.28688 247.34375 162.115Q247.39062 162.08376 247.73438 161.8025Q248.3125 161.31813 248.57812 161.0525Q248.84375 160.78688 248.89062 160.75563Q249.01562 160.74 249.07812 160.74Q249.23438 160.74 249.26562 160.8025Q249.3125 160.84938 249.3125 161.14626L249.26562 166.38063L249.26562 166.89626Q249.26562 167.08376 249.25 167.27126Q249.25 167.45876 249.25 167.5525Q249.25 167.75563 249.3125 167.81813Q249.34375 167.865 249.51562 167.9275L249.92188 168.00563Q250.17188 168.06813 250.20312 168.09938Q250.26562 168.14626 250.26562 168.25563L250.25 168.33376ZM254.26562 164.59938Q253.6875 164.3025 253.48438 164.115Q253.20312 163.865 253.0 163.47438Q252.79688 163.06813 252.79688 162.64626Q252.79688 161.9275 253.375 161.34938Q253.95312 160.75563 254.79688 160.75563Q255.73438 160.75563 256.28125 161.25563Q256.84375 161.74 256.84375 162.45876Q256.84375 162.865 256.67188 163.19313Q256.51562 163.52126 256.1875 163.77126Q255.96875 163.95876 255.45312 164.22438Q256.25 164.66188 256.40625 164.78688Q256.71875 165.02126 256.9375 165.4275Q257.15625 165.83376 257.15625 166.33376Q257.15625 167.24 256.51562 167.88063Q255.875 168.52126 254.89062 168.52126Q253.875 168.52126 253.28125 167.97438Q252.6875 167.41188 252.6875 166.58376Q252.6875 166.13063 252.84375 165.75563Q253.0 165.365 253.32812 165.09938Q253.59375 164.89626 254.26562 164.59938ZM255.1875 164.09938Q255.67188 163.81813 255.875 163.53688Q256.1875 163.06813 256.1875 162.45876Q256.1875 161.99 256.0 161.66188Q255.8125 161.31813 255.5 161.1775Q255.1875 161.02126 254.8125 161.02126Q254.23438 161.02126 253.85938 161.4275Q253.48438 161.81813 253.48438 162.39626Q253.48438 162.74 253.57812 162.97438Q253.6875 163.19313 253.90625 163.38063Q254.04688 163.52126 254.5625 163.84938Q254.64062 163.89626 254.9375 163.99Q255.01562 164.02126 255.1875 164.09938ZM254.54688 164.74Q254.125 164.95876 253.95312 165.13063Q253.70312 165.365 253.54688 165.70876Q253.40625 166.0525 253.40625 166.64626Q253.40625 167.27126 253.6875 167.63063Q254.14062 168.22438 254.875 168.22438Q255.54688 168.22438 255.96875 167.8025Q256.40625 167.365 256.40625 166.69313Q256.40625 165.95876 255.96875 165.53688Q255.54688 165.115 254.54688 164.74ZM260.15625 168.74Q260.20312 168.63063 260.26562 168.52126Q260.34375 168.4275 260.45312 168.22438Q260.5 168.16188 260.89062 167.56813Q261.28125 166.97438 261.4375 166.74Q264.04688 162.3025 265.21875 160.70876L265.28125 160.70876Q265.5625 160.72438 265.59375 160.72438L263.03125 164.74L261.875 166.66188L260.51562 168.72438L260.48438 168.72438Q260.45312 168.72438 260.20312 168.74L260.15625 168.74ZM261.42188 162.75563Q261.42188 163.6775 260.95312 164.24Q260.48438 164.78688 259.92188 164.78688Q259.32812 164.78688 258.875 164.25563Q258.4375 163.72438 258.4375 162.81813Q258.4375 162.1775 258.65625 161.63063Q258.84375 161.22438 259.1875 160.97438Q259.54688 160.70876 259.95312 160.70876Q260.35938 160.70876 260.71875 160.97438Q261.07812 161.24 261.28125 161.78688Q261.42188 162.13063 261.42188 162.75563ZM260.76562 162.865Q260.76562 162.00563 260.71875 161.74Q260.64062 161.28688 260.4375 161.09938Q260.23438 160.91188 259.95312 160.91188Q259.54688 160.91188 259.32812 161.25563Q259.10938 161.59938 259.10938 162.89626Q259.10938 163.91188 259.32812 164.24Q259.5625 164.56813 259.90625 164.56813Q260.3125 164.56813 260.51562 164.28688Q260.76562 163.9275 260.76562 162.865ZM267.46875 166.4275Q267.46875 167.34938 267.0 167.89626Q266.53125 168.44313 265.96875 168.44313Q265.39062 168.44313 264.9375 167.91188Q264.48438 167.38063 264.48438 166.47438Q264.48438 165.83376 264.71875 165.28688Q264.89062 164.88063 265.23438 164.63063Q265.59375 164.365 266.0 164.365Q266.40625 164.365 266.76562 164.63063Q267.125 164.89626 267.32812 165.44313Q267.46875 165.78688 267.46875 166.4275ZM266.8125 166.52126Q266.8125 165.66188 266.76562 165.39626Q266.6875 164.94313 266.48438 164.77126Q266.28125 164.58376 266.0 164.58376Q265.60938 164.58376 265.375 164.9275Q265.15625 165.25563 265.15625 166.5525Q265.15625 167.58376 265.375 167.91188Q265.60938 168.24 265.96875 168.24Q266.35938 168.24 266.5625 167.95876Q266.8125 167.58376 266.8125 166.52126Z" fill-rule="nonzero"/><path fill="#000000" d="M250.25 168.33376L247.57812 168.33376Q247.5625 168.28688 247.5625 168.25563Q247.5625 168.14626 247.59375 168.115Q247.64062 168.06813 247.85938 168.03688Q248.20312 167.95876 248.42188 167.865Q248.46875 167.74 248.46875 167.615L248.46875 167.25563Q248.46875 167.19313 248.48438 166.66188Q248.5 166.47438 248.5 164.94313L248.51562 163.56813L248.5 162.77126Q248.5 162.58376 248.51562 161.66188Q247.1875 162.59938 247.0625 162.59938Q247.01562 162.59938 246.95312 162.5525Q246.90625 162.50563 246.90625 162.45876Q246.90625 162.39626 246.9375 162.365Q247.03125 162.28688 247.34375 162.115Q247.39062 162.08376 247.73438 161.8025Q248.3125 161.31813 248.57812 161.0525Q248.84375 160.78688 248.89062 160.75563Q249.01562 160.74 249.07812 160.74Q249.23438 160.74 249.26562 160.8025Q249.3125 160.84938 249.3125 161.14626L249.26562 166.38063L249.26562 166.89626Q249.26562 167.08376 249.25 167.27126Q249.25 167.45876 249.25 167.5525Q249.25 167.75563 249.3125 167.81813Q249.34375 167.865 249.51562 167.9275L249.92188 168.00563Q250.17188 168.06813 250.20312 168.09938Q250.26562 168.14626 250.26562 168.25563L250.25 168.33376ZM254.26562 164.59938Q253.6875 164.3025 253.48438 164.115Q253.20312 163.865 253.0 163.47438Q252.79688 163.06813 252.79688 162.64626Q252.79688 161.9275 253.375 161.34938Q253.95312 160.75563 254.79688 160.75563Q255.73438 160.75563 256.28125 161.25563Q256.84375 161.74 256.84375 162.45876Q256.84375 162.865 256.67188 163.19313Q256.51562 163.52126 256.1875 163.77126Q255.96875 163.95876 255.45312 164.22438Q256.25 164.66188 256.40625 164.78688Q256.71875 165.02126 256.9375 165.4275Q257.15625 165.83376 257.15625 166.33376Q257.15625 167.24 256.51562 167.88063Q255.875 168.52126 254.89062 168.52126Q253.875 168.52126 253.28125 167.97438Q252.6875 167.41188 252.6875 166.58376Q252.6875 166.13063 252.84375 165.75563Q253.0 165.365 253.32812 165.09938Q253.59375 164.89626 254.26562 164.59938ZM255.1875 164.09938Q255.67188 163.81813 255.875 163.53688Q256.1875 163.06813 256.1875 162.45876Q256.1875 161.99 256.0 161.66188Q255.8125 161.31813 255.5 161.1775Q255.1875 161.02126 254.8125 161.02126Q254.23438 161.02126 253.85938 161.4275Q253.48438 161.81813 253.48438 162.39626Q253.48438 162.74 253.57812 162.97438Q253.6875 163.19313 253.90625 163.38063Q254.04688 163.52126 254.5625 163.84938Q254.64062 163.89626 254.9375 163.99Q255.01562 164.02126 255.1875 164.09938ZM254.54688 164.74Q254.125 164.95876 253.95312 165.13063Q253.70312 165.365 253.54688 165.70876Q253.40625 166.0525 253.40625 166.64626Q253.40625 167.27126 253.6875 167.63063Q254.14062 168.22438 254.875 168.22438Q255.54688 168.22438 255.96875 167.8025Q256.40625 167.365 256.40625 166.69313Q256.40625 165.95876 255.96875 165.53688Q255.54688 165.115 254.54688 164.74ZM260.15625 168.74Q260.20312 168.63063 260.26562 168.52126Q260.34375 168.4275 260.45312 168.22438Q260.5 168.16188 260.89062 167.56813Q261.28125 166.97438 261.4375 166.74Q264.04688 162.3025 265.21875 160.70876L265.28125 160.70876Q265.5625 160.72438 265.59375 160.72438L263.03125 164.74L261.875 166.66188L260.51562 168.72438L260.48438 168.72438Q260.45312 168.72438 260.20312 168.74L260.15625 168.74ZM261.42188 162.75563Q261.42188 163.6775 260.95312 164.24Q260.48438 164.78688 259.92188 164.78688Q259.32812 164.78688 258.875 164.25563Q258.4375 163.72438 258.4375 162.81813Q258.4375 162.1775 258.65625 161.63063Q258.84375 161.22438 259.1875 160.97438Q259.54688 160.70876 259.95312 160.70876Q260.35938 160.70876 260.71875 160.97438Q261.07812 161.24 261.28125 161.78688Q261.42188 162.13063 261.42188 162.75563ZM260.76562 162.865Q260.76562 162.00563 260.71875 161.74Q260.64062 161.28688 260.4375 161.09938Q260.23438 160.91188 259.95312 160.91188Q259.54688 160.91188 259.32812 161.25563Q259.10938 161.59938 259.10938 162.89626Q259.10938 163.91188 259.32812 164.24Q259.5625 164.56813 259.90625 164.56813Q260.3125 164.56813 260.51562 164.28688Q260.76562 163.9275 260.76562 162.865ZM267.46875 166.4275Q267.46875 167.34938 267.0 167.89626Q266.53125 168.44313 265.96875 168.44313Q265.39062 168.44313 264.9375 167.91188Q264.48438 167.38063 264.48438 166.47438Q264.48438 165.83376 264.71875 165.28688Q264.89062 164.88063 265.23438 164.63063Q265.59375 164.365 266.0 164.365Q266.40625 164.365 266.76562 164.63063Q267.125 164.89626 267.32812 165.44313Q267.46875 165.78688 267.46875 166.4275ZM266.8125 166.52126Q266.8125 165.66188 266.76562 165.39626Q266.6875 164.94313 266.48438 164.77126Q266.28125 164.58376 266.0 164.58376Q265.60938 164.58376 265.375 164.9275Q265.15625 165.25563 265.15625 166.5525Q265.15625 167.58376 265.375 167.91188Q265.60938 168.24 265.96875 168.24Q266.35938 168.24 266.5625 167.95876Q266.8125 167.58376 266.8125 166.52126Z" fill-rule="nonzero"/><path stroke="#ffffff" stroke-width="3.0" stroke-linejoin="round" stroke-linecap="round" d="M335.10938 194.2498Q334.23438 194.21855 332.76562 194.21855L331.48438 194.2498L330.92188 194.23418L330.46875 194.2498Q330.40625 194.2498 330.26562 194.21855Q330.375 193.98418 330.53125 193.76543Q331.01562 193.17168 331.95312 192.23418Q333.26562 190.90605 333.6875 190.15605Q334.10938 189.40605 334.10938 188.7498Q334.10938 188.1248 333.6875 187.70293Q333.26562 187.28105 332.64062 187.28105Q332.28125 187.28105 331.92188 187.45293Q331.57812 187.6248 331.375 187.89043Q331.23438 188.0623 331.01562 188.5623Q330.89062 188.84355 330.875 188.8748Q330.82812 188.92168 330.78125 188.92168Q330.73438 188.92168 330.6875 188.8748Q330.65625 188.8123 330.65625 188.73418Q330.65625 188.46855 330.92188 187.89043Q331.1875 187.3123 331.70312 186.98418Q332.21875 186.65605 332.90625 186.65605Q333.79688 186.65605 334.39062 187.2498Q335.0 187.82793 335.0 188.64043Q335.0 189.26543 334.59375 189.9373Q334.1875 190.59355 332.70312 191.95293Q332.21875 192.39043 332.01562 192.60918Q331.8125 192.8123 331.1875 193.51543Q332.09375 193.5623 332.8125 193.5623Q332.98438 193.5623 333.17188 193.54668Q333.51562 193.53105 333.5625 193.53105L334.39062 193.54668Q334.51562 193.54668 334.65625 193.42168Q334.79688 193.29668 335.04688 192.6873L335.1875 192.6873Q335.20312 192.6873 335.26562 192.6873Q335.29688 192.7498 335.29688 192.78105L335.28125 192.82793Q335.23438 192.9998 335.20312 193.45293Q335.1875 193.71855 335.10938 194.2498ZM338.15625 194.65605Q338.20312 194.54668 338.26562 194.4373Q338.34375 194.34355 338.45312 194.14043Q338.5 194.07793 338.89062 193.48418Q339.28125 192.89043 339.4375 192.65605Q342.04688 188.21855 343.21875 186.6248L343.28125 186.6248Q343.5625 186.64043 343.59375 186.64043L341.03125 190.65605L339.875 192.57793L338.51562 194.64043L338.48438 194.64043Q338.45312 194.64043 338.20312 194.65605L338.15625 194.65605ZM339.42188 188.67168Q339.42188 189.59355 338.95312 190.15605Q338.48438 190.70293 337.92188 190.70293Q337.32812 190.70293 336.875 190.17168Q336.4375 189.64043 336.4375 188.73418Q336.4375 188.09355 336.65625 187.54668Q336.84375 187.14043 337.1875 186.89043Q337.54688 186.6248 337.95312 186.6248Q338.35938 186.6248 338.71875 186.89043Q339.07812 187.15605 339.28125 187.70293Q339.42188 188.04668 339.42188 188.67168ZM338.76562 188.78105Q338.76562 187.92168 338.71875 187.65605Q338.64062 187.20293 338.4375 187.01543Q338.23438 186.82793 337.95312 186.82793Q337.54688 186.82793 337.32812 187.17168Q337.10938 187.51543 337.10938 188.8123Q337.10938 189.82793 337.32812 190.15605Q337.5625 190.48418 337.90625 190.48418Q338.3125 190.48418 338.51562 190.20293Q338.76562 189.84355 338.76562 188.78105ZM345.46875 192.34355Q345.46875 193.26543 345.0 193.8123Q344.53125 194.35918 343.96875 194.35918Q343.39062 194.35918 342.9375 193.82793Q342.48438 193.29668 342.48438 192.39043Q342.48438 191.7498 342.71875 191.20293Q342.89062 190.79668 343.23438 190.54668Q343.59375 190.28105 344.0 190.28105Q344.40625 190.28105 344.76562 190.54668Q345.125 190.8123 345.32812 191.35918Q345.46875 191.70293 345.46875 192.34355ZM344.8125 192.4373Q344.8125 191.57793 344.76562 191.3123Q344.6875 190.85918 344.48438 190.6873Q344.28125 190.4998 344.0 190.4998Q343.60938 190.4998 343.375 190.84355Q343.15625 191.17168 343.15625 192.46855Q343.15625 193.4998 343.375 193.82793Q343.60938 194.15605 343.96875 194.15605Q344.35938 194.15605 344.5625 193.8748Q344.8125 193.4998 344.8125 192.4373Z" fill-rule="nonzero"/><path fill="#000000" d="M335.10938 194.2498Q334.23438 194.21855 332.76562 194.21855L331.48438 194.2498L330.92188 194.23418L330.46875 194.2498Q330.40625 194.2498 330.26562 194.21855Q330.375 193.98418 330.53125 193.76543Q331.01562 193.17168 331.95312 192.23418Q333.26562 190.90605 333.6875 190.15605Q334.10938 189.40605 334.10938 188.7498Q334.10938 188.1248 333.6875 187.70293Q333.26562 187.28105 332.64062 187.28105Q332.28125 187.28105 331.92188 187.45293Q331.57812 187.6248 331.375 187.89043Q331.23438 188.0623 331.01562 188.5623Q330.89062 188.84355 330.875 188.8748Q330.82812 188.92168 330.78125 188.92168Q330.73438 188.92168 330.6875 188.8748Q330.65625 188.8123 330.65625 188.73418Q330.65625 188.46855 330.92188 187.89043Q331.1875 187.3123 331.70312 186.98418Q332.21875 186.65605 332.90625 186.65605Q333.79688 186.65605 334.39062 187.2498Q335.0 187.82793 335.0 188.64043Q335.0 189.26543 334.59375 189.9373Q334.1875 190.59355 332.70312 191.95293Q332.21875 192.39043 332.01562 192.60918Q331.8125 192.8123 331.1875 193.51543Q332.09375 193.5623 332.8125 193.5623Q332.98438 193.5623 333.17188 193.54668Q333.51562 193.53105 333.5625 193.53105L334.39062 193.54668Q334.51562 193.54668 334.65625 193.42168Q334.79688 193.29668 335.04688 192.6873L335.1875 192.6873Q335.20312 192.6873 335.26562 192.6873Q335.29688 192.7498 335.29688 192.78105L335.28125 192.82793Q335.23438 192.9998 335.20312 193.45293Q335.1875 193.71855 335.10938 194.2498ZM338.15625 194.65605Q338.20312 194.54668 338.26562 194.4373Q338.34375 194.34355 338.45312 194.14043Q338.5 194.07793 338.89062 193.48418Q339.28125 192.89043 339.4375 192.65605Q342.04688 188.21855 343.21875 186.6248L343.28125 186.6248Q343.5625 186.64043 343.59375 186.64043L341.03125 190.65605L339.875 192.57793L338.51562 194.64043L338.48438 194.64043Q338.45312 194.64043 338.20312 194.65605L338.15625 194.65605ZM339.42188 188.67168Q339.42188 189.59355 338.95312 190.15605Q338.48438 190.70293 337.92188 190.70293Q337.32812 190.70293 336.875 190.17168Q336.4375 189.64043 336.4375 188.73418Q336.4375 188.09355 336.65625 187.54668Q336.84375 187.14043 337.1875 186.89043Q337.54688 186.6248 337.95312 186.6248Q338.35938 186.6248 338.71875 186.89043Q339.07812 187.15605 339.28125 187.70293Q339.42188 188.04668 339.42188 188.67168ZM338.76562 188.78105Q338.76562 187.92168 338.71875 187.65605Q338.64062 187.20293 338.4375 187.01543Q338.23438 186.82793 337.95312 186.82793Q337.54688 186.82793 337.32812 187.17168Q337.10938 187.51543 337.10938 188.8123Q337.10938 189.82793 337.32812 190.15605Q337.5625 190.48418 337.90625 190.48418Q338.3125 190.48418 338.51562 190.20293Q338.76562 189.84355 338.76562 188.78105ZM345.46875 192.34355Q345.46875 193.26543 345.0 193.8123Q344.53125 194.35918 343.96875 194.35918Q343.39062 194.35918 342.9375 193.82793Q342.48438 193.29668 342.48438 192.39043Q342.48438 191.7498 342.71875 191.20293Q342.89062 190.79668 343.23438 190.54668Q343.59375 190.28105 344.0 190.28105Q344.40625 190.28105 344.76562 190.54668Q345.125 190.8123 345.32812 191.35918Q345.46875 191.70293 345.46875 192.34355ZM344.8125 192.4373Q344.8125 191.57793 344.76562 191.3123Q344.6875 190.85918 344.48438 190.6873Q344.28125 190.4998 344.0 190.4998Q343.60938 190.4998 343.375 190.84355Q343.15625 191.17168 343.15625 192.46855Q343.15625 193.4998 343.375 193.82793Q343.60938 194.15605 343.96875 194.15605Q344.35938 194.15605 344.5625 193.8748Q344.8125 193.4998 344.8125 192.4373Z" fill-rule="nonzero"/><path fill="#757575" d="M24.015625 219.29688Q24.015625 219.90625 23.921875 220.375Q23.765625 221.1875 23.484375 221.73438Q23.203125 222.26562 22.828125 222.64062Q22.546875 222.92188 22.21875 223.04688Q21.90625 223.17188 21.578125 223.17188Q21.0 223.17188 20.484375 222.79688Q19.96875 222.40625 19.578125 221.51562Q19.1875 220.625 19.1875 219.40625Q19.1875 218.46875 19.421875 217.60938Q19.65625 216.73438 20.03125 216.26562Q20.421875 215.78125 20.796875 215.57812Q21.1875 215.35938 21.625 215.35938Q22.25 215.35938 22.84375 215.85938Q23.4375 216.34375 23.78125 217.375Q24.015625 218.07812 24.015625 219.29688ZM23.140625 219.10938Q23.125 217.67188 23.03125 217.15625Q22.875 216.29688 22.5 215.96875Q22.125 215.625 21.625 215.625Q21.203125 215.625 20.828125 215.89062Q20.46875 216.15625 20.328125 216.73438Q20.078125 217.67188 20.078125 219.5625Q20.078125 221.4375 20.453125 222.1875Q20.828125 222.92188 21.578125 222.92188Q22.078125 222.92188 22.453125 222.60938Q22.828125 222.29688 22.984375 221.4375Q23.15625 220.57812 23.140625 219.51562L23.140625 219.10938ZM26.921875 223.39062Q26.96875 223.28125 27.03125 223.17188Q27.109375 223.07812 27.21875 222.875Q27.265625 222.8125 27.65625 222.21875Q28.046875 221.625 28.203125 221.39062Q30.8125 216.95312 31.984375 215.35938L32.046875 215.35938Q32.328125 215.375 32.359375 215.375L29.796875 219.39062L28.640625 221.3125L27.28125 223.375L27.25 223.375Q27.21875 223.375 26.96875 223.39062L26.921875 223.39062ZM28.1875 217.40625Q28.1875 218.32812 27.71875 218.89062Q27.25 219.4375 26.6875 219.4375Q26.09375 219.4375 25.640625 218.90625Q25.203125 218.375 25.203125 217.46875Q25.203125 216.82812 25.421875 216.28125Q25.609375 215.875 25.953125 215.625Q26.3125 215.35938 26.71875 215.35938Q27.125 215.35938 27.484375 215.625Q27.84375 215.89062 28.046875 216.4375Q28.1875 216.78125 28.1875 217.40625ZM27.53125 217.51562Q27.53125 216.65625 27.484375 216.39062Q27.40625 215.9375 27.203125 215.75Q27.0 215.5625 26.71875 215.5625Q26.3125 215.5625 26.09375 215.90625Q25.875 216.25 25.875 217.54688Q25.875 218.5625 26.09375 218.89062Q26.328125 219.21875 26.671875 219.21875Q27.078125 219.21875 27.28125 218.9375Q27.53125 218.57812 27.53125 217.51562ZM34.234375 221.07812Q34.234375 222.0 33.765625 222.54688Q33.296875 223.09375 32.734375 223.09375Q32.15625 223.09375 31.703125 222.5625Q31.25 222.03125 31.25 221.125Q31.25 220.48438 31.484375 219.9375Q31.65625 219.53125 32.0 219.28125Q32.359375 219.01562 32.765625 219.01562Q33.171875 219.01562 33.53125 219.28125Q33.890625 219.54688 34.09375 220.09375Q34.234375 220.4375 34.234375 221.07812ZM33.578125 221.17188Q33.578125 220.3125 33.53125 220.04688Q33.453125 219.59375 33.25 219.42188Q33.046875 219.23438 32.765625 219.23438Q32.375 219.23438 32.140625 219.57812Q31.921875 219.90625 31.921875 221.20312Q31.921875 222.23438 32.140625 222.5625Q32.375 222.89062 32.734375 222.89062Q33.125 222.89062 33.328125 222.60938Q33.578125 222.23438 33.578125 221.17188Z" fill-rule="nonzero"/><path fill="#757575" d="M17.015625 185.58438L14.34375 185.58438Q14.328125 185.5375 14.328125 185.50626Q14.328125 185.39688 14.359375 185.36563Q14.40625 185.31876 14.625 185.2875Q14.96875 185.20938 15.1875 185.11563Q15.234375 184.99063 15.234375 184.86563L15.234375 184.50626Q15.234375 184.44376 15.25 183.9125Q15.265625 183.725 15.265625 182.19376L15.28125 180.81876L15.265625 180.02188Q15.265625 179.83438 15.28125 178.9125Q13.953125 179.85 13.828125 179.85Q13.78125 179.85 13.71875 179.80313Q13.671875 179.75626 13.671875 179.70938Q13.671875 179.64688 13.703125 179.61563Q13.796875 179.5375 14.109375 179.36563Q14.15625 179.33438 14.5 179.05313Q15.078125 178.56876 15.34375 178.30313Q15.609375 178.0375 15.65625 178.00626Q15.78125 177.99063 15.84375 177.99063Q16.0 177.99063 16.03125 178.05313Q16.078125 178.1 16.078125 178.39688L16.03125 183.63126L16.03125 184.14688Q16.03125 184.33438 16.015625 184.52188Q16.015625 184.70938 16.015625 184.80313Q16.015625 185.00626 16.078125 185.06876Q16.109375 185.11563 16.28125 185.17813L16.6875 185.25626Q16.9375 185.31876 16.96875 185.35Q17.03125 185.39688 17.03125 185.50626L17.015625 185.58438ZM24.015625 181.89688Q24.015625 182.50626 23.921875 182.975Q23.765625 183.7875 23.484375 184.33438Q23.203125 184.86563 22.828125 185.24063Q22.546875 185.52188 22.21875 185.64688Q21.90625 185.77188 21.578125 185.77188Q21.0 185.77188 20.484375 185.39688Q19.96875 185.00626 19.578125 184.11563Q19.1875 183.225 19.1875 182.00626Q19.1875 181.06876 19.421875 180.20938Q19.65625 179.33438 20.03125 178.86563Q20.421875 178.38126 20.796875 178.17813Q21.1875 177.95938 21.625 177.95938Q22.25 177.95938 22.84375 178.45938Q23.4375 178.94376 23.78125 179.975Q24.015625 180.67813 24.015625 181.89688ZM23.140625 181.70938Q23.125 180.27188 23.03125 179.75626Q22.875 178.89688 22.5 178.56876Q22.125 178.225 21.625 178.225Q21.203125 178.225 20.828125 178.49063Q20.46875 178.75626 20.328125 179.33438Q20.078125 180.27188 20.078125 182.1625Q20.078125 184.0375 20.453125 184.7875Q20.828125 185.52188 21.578125 185.52188Q22.078125 185.52188 22.453125 185.20938Q22.828125 184.89688 22.984375 184.0375Q23.15625 183.17813 23.140625 182.11563L23.140625 181.70938ZM26.921875 185.99063Q26.96875 185.88126 27.03125 185.77188Q27.109375 185.67813 27.21875 185.475Q27.265625 185.4125 27.65625 184.81876Q28.046875 184.225 28.203125 183.99063Q30.8125 179.55313 31.984375 177.95938L32.046875 177.95938Q32.328125 177.975 32.359375 177.975L29.796875 181.99063L28.640625 183.9125L27.28125 185.975L27.25 185.975Q27.21875 185.975 26.96875 185.99063L26.921875 185.99063ZM28.1875 180.00626Q28.1875 180.92813 27.71875 181.49063Q27.25 182.0375 26.6875 182.0375Q26.09375 182.0375 25.640625 181.50626Q25.203125 180.975 25.203125 180.06876Q25.203125 179.42813 25.421875 178.88126Q25.609375 178.475 25.953125 178.225Q26.3125 177.95938 26.71875 177.95938Q27.125 177.95938 27.484375 178.225Q27.84375 178.49063 28.046875 179.0375Q28.1875 179.38126 28.1875 180.00626ZM27.53125 180.11563Q27.53125 179.25626 27.484375 178.99063Q27.40625 178.5375 27.203125 178.35Q27.0 178.1625 26.71875 178.1625Q26.3125 178.1625 26.09375 178.50626Q25.875 178.85 25.875 180.14688Q25.875 181.1625 26.09375 181.49063Q26.328125 181.81876 26.671875 181.81876Q27.078125 181.81876 27.28125 181.5375Q27.53125 181.17813 27.53125 180.11563ZM34.234375 183.67813Q34.234375 184.6 33.765625 185.14688Q33.296875 185.69376 32.734375 185.69376Q32.15625 185.69376 31.703125 185.1625Q31.25 184.63126 31.25 183.725Q31.25 183.08438 31.484375 182.5375Q31.65625 182.13126 32.0 181.88126Q32.359375 181.61563 32.765625 181.61563Q33.171875 181.61563 33.53125 181.88126Q33.890625 182.14688 34.09375 182.69376Q34.234375 183.0375 34.234375 183.67813ZM33.578125 183.77188Q33.578125 182.9125 33.53125 182.64688Q33.453125 182.19376 33.25 182.02188Q33.046875 181.83438 32.765625 181.83438Q32.375 181.83438 32.140625 182.17813Q31.921875 182.50626 31.921875 183.80313Q31.921875 184.83438 32.140625 185.1625Q32.375 185.49063 32.734375 185.49063Q33.125 185.49063 33.328125 185.20938Q33.578125 184.83438 33.578125 183.77188Z" fill-rule="nonzero"/><path fill="#757575" d="M17.875 148.18437Q17.0 148.15312 15.53125 148.15312L14.25 148.18437L13.6875 148.16875L13.234375 148.18437Q13.171875 148.18437 13.03125 148.15312Q13.140625 147.91875 13.296875 147.7Q13.78125 147.10625 14.71875 146.16875Q16.03125 144.84062 16.453125 144.09062Q16.875 143.34062 16.875 142.68437Q16.875 142.05937 16.453125 141.6375Q16.03125 141.21562 15.40625 141.21562Q15.046875 141.21562 14.6875 141.3875Q14.34375 141.55937 14.140625 141.825Q14.0 141.99687 13.78125 142.49687Q13.65625 142.77812 13.640625 142.80937Q13.59375 142.85625 13.546875 142.85625Q13.5 142.85625 13.453125 142.80937Q13.421875 142.74687 13.421875 142.66875Q13.421875 142.40312 13.6875 141.825Q13.953125 141.24687 14.46875 140.91875Q14.984375 140.59062 15.671875 140.59062Q16.5625 140.59062 17.15625 141.18437Q17.765625 141.7625 17.765625 142.575Q17.765625 143.2 17.359375 143.87187Q16.953125 144.52812 15.46875 145.8875Q14.984375 146.325 14.78125 146.54375Q14.578125 146.74687 13.953125 147.45Q14.859375 147.49687 15.578125 147.49687Q15.75 147.49687 15.9375 147.48125Q16.28125 147.46562 16.328125 147.46562L17.15625 147.48125Q17.28125 147.48125 17.421875 147.35625Q17.5625 147.23125 17.8125 146.62187L17.953125 146.62187Q17.96875 146.62187 18.03125 146.62187Q18.0625 146.68437 18.0625 146.71562L18.046875 146.7625Q18.0 146.93437 17.96875 147.3875Q17.953125 147.65312 17.875 148.18437ZM24.015625 144.49687Q24.015625 145.10625 23.921875 145.575Q23.765625 146.3875 23.484375 146.93437Q23.203125 147.46562 22.828125 147.84062Q22.546875 148.12187 22.21875 148.24687Q21.90625 148.37187 21.578125 148.37187Q21.0 148.37187 20.484375 147.99687Q19.96875 147.60625 19.578125 146.71562Q19.1875 145.825 19.1875 144.60625Q19.1875 143.66875 19.421875 142.80937Q19.65625 141.93437 20.03125 141.46562Q20.421875 140.98125 20.796875 140.77812Q21.1875 140.55937 21.625 140.55937Q22.25 140.55937 22.84375 141.05937Q23.4375 141.54375 23.78125 142.575Q24.015625 143.27812 24.015625 144.49687ZM23.140625 144.30937Q23.125 142.87187 23.03125 142.35625Q22.875 141.49687 22.5 141.16875Q22.125 140.825 21.625 140.825Q21.203125 140.825 20.828125 141.09062Q20.46875 141.35625 20.328125 141.93437Q20.078125 142.87187 20.078125 144.7625Q20.078125 146.6375 20.453125 147.3875Q20.828125 148.12187 21.578125 148.12187Q22.078125 148.12187 22.453125 147.80937Q22.828125 147.49687 22.984375 146.6375Q23.15625 145.77812 23.140625 144.71562L23.140625 144.30937ZM26.921875 148.59062Q26.96875 148.48125 27.03125 148.37187Q27.109375 148.27812 27.21875 148.075Q27.265625 148.0125 27.65625 147.41875Q28.046875 146.825 28.203125 146.59062Q30.8125 142.15312 31.984375 140.55937L32.046875 140.55937Q32.328125 140.575 32.359375 140.575L29.796875 144.59062L28.640625 146.5125L27.28125 148.575L27.25 148.575Q27.21875 148.575 26.96875 148.59062L26.921875 148.59062ZM28.1875 142.60625Q28.1875 143.52812 27.71875 144.09062Q27.25 144.6375 26.6875 144.6375Q26.09375 144.6375 25.640625 144.10625Q25.203125 143.575 25.203125 142.66875Q25.203125 142.02812 25.421875 141.48125Q25.609375 141.075 25.953125 140.825Q26.3125 140.55937 26.71875 140.55937Q27.125 140.55937 27.484375 140.825Q27.84375 141.09062 28.046875 141.6375Q28.1875 141.98125 28.1875 142.60625ZM27.53125 142.71562Q27.53125 141.85625 27.484375 141.59062Q27.40625 141.1375 27.203125 140.95Q27.0 140.7625 26.71875 140.7625Q26.3125 140.7625 26.09375 141.10625Q25.875 141.45 25.875 142.74687Q25.875 143.7625 26.09375 144.09062Q26.328125 144.41875 26.671875 144.41875Q27.078125 144.41875 27.28125 144.1375Q27.53125 143.77812 27.53125 142.71562ZM34.234375 146.27812Q34.234375 147.2 33.765625 147.74687Q33.296875 148.29375 32.734375 148.29375Q32.15625 148.29375 31.703125 147.7625Q31.25 147.23125 31.25 146.325Q31.25 145.68437 31.484375 145.1375Q31.65625 144.73125 32.0 144.48125Q32.359375 144.21562 32.765625 144.21562Q33.171875 144.21562 33.53125 144.48125Q33.890625 144.74687 34.09375 145.29375Q34.234375 145.6375 34.234375 146.27812ZM33.578125 146.37187Q33.578125 145.5125 33.53125 145.24687Q33.453125 144.79375 33.25 144.62187Q33.046875 144.43437 32.765625 144.43437Q32.375 144.43437 32.140625 144.77812Q31.921875 145.10625 31.921875 146.40312Q31.921875 147.43437 32.140625 147.7625Q32.375 148.09062 32.734375 148.09062Q33.125 148.09062 33.328125 147.80937Q33.578125 147.43437 33.578125 146.37187Z" fill-rule="nonzero"/><path fill="#757575" d="M13.765625 104.89375L13.578125 104.78438Q13.9375 103.89375 14.453125 103.53438Q14.96875 103.15938 15.640625 103.15938Q16.28125 103.15938 16.65625 103.44063Q17.21875 103.8625 17.21875 104.39375Q17.21875 104.81563 16.921875 105.25313Q16.640625 105.69063 15.921875 106.22188L16.0625 106.22188Q16.515625 106.22188 16.9375 106.45625Q17.359375 106.675 17.609375 107.175Q17.859375 107.65938 17.859375 108.22188Q17.859375 109.34688 17.03125 110.15938Q16.203125 110.97188 14.921875 110.97188Q13.9375 110.97188 13.484375 110.675Q13.234375 110.53438 13.234375 110.31563Q13.234375 110.19063 13.328125 110.09688Q13.4375 109.9875 13.59375 109.9875Q13.78125 109.9875 14.0625 110.20625Q14.703125 110.70625 15.1875 110.70625Q15.90625 110.70625 16.46875 110.09688Q17.03125 109.47188 17.03125 108.55Q17.03125 107.76875 16.65625 107.28438Q16.28125 106.78438 15.703125 106.78438Q15.265625 106.78438 14.796875 107.19063L14.65625 106.95625Q14.953125 106.70625 15.1875 106.53438Q15.90625 106.00313 16.25 105.50313Q16.5 105.14375 16.5 104.8625Q16.5 104.39375 16.171875 104.08125Q15.84375 103.76875 15.3125 103.76875Q14.4375 103.76875 13.765625 104.89375ZM24.015625 107.09688Q24.015625 107.70625 23.921875 108.175Q23.765625 108.9875 23.484375 109.53438Q23.203125 110.06563 22.828125 110.44063Q22.546875 110.72188 22.21875 110.84688Q21.90625 110.97188 21.578125 110.97188Q21.0 110.97188 20.484375 110.59688Q19.96875 110.20625 19.578125 109.31563Q19.1875 108.425 19.1875 107.20625Q19.1875 106.26875 19.421875 105.40938Q19.65625 104.53438 20.03125 104.06563Q20.421875 103.58125 20.796875 103.37813Q21.1875 103.15938 21.625 103.15938Q22.25 103.15938 22.84375 103.65938Q23.4375 104.14375 23.78125 105.175Q24.015625 105.87813 24.015625 107.09688ZM23.140625 106.90938Q23.125 105.47188 23.03125 104.95625Q22.875 104.09688 22.5 103.76875Q22.125 103.425 21.625 103.425Q21.203125 103.425 20.828125 103.69063Q20.46875 103.95625 20.328125 104.53438Q20.078125 105.47188 20.078125 107.3625Q20.078125 109.2375 20.453125 109.9875Q20.828125 110.72188 21.578125 110.72188Q22.078125 110.72188 22.453125 110.40938Q22.828125 110.09688 22.984375 109.2375Q23.15625 108.37813 23.140625 107.31563L23.140625 106.90938ZM26.921875 111.19063Q26.96875 111.08125 27.03125 110.97188Q27.109375 110.87813 27.21875 110.675Q27.265625 110.6125 27.65625 110.01875Q28.046875 109.425 28.203125 109.19063Q30.8125 104.75313 31.984375 103.15938L32.046875 103.15938Q32.328125 103.175 32.359375 103.175L29.796875 107.19063L28.640625 109.1125L27.28125 111.175L27.25 111.175Q27.21875 111.175 26.96875 111.19063L26.921875 111.19063ZM28.1875 105.20625Q28.1875 106.12813 27.71875 106.69063Q27.25 107.2375 26.6875 107.2375Q26.09375 107.2375 25.640625 106.70625Q25.203125 106.175 25.203125 105.26875Q25.203125 104.62813 25.421875 104.08125Q25.609375 103.675 25.953125 103.425Q26.3125 103.15938 26.71875 103.15938Q27.125 103.15938 27.484375 103.425Q27.84375 103.69063 28.046875 104.2375Q28.1875 104.58125 28.1875 105.20625ZM27.53125 105.31563Q27.53125 104.45625 27.484375 104.19063Q27.40625 103.7375 27.203125 103.55Q27.0 103.3625 26.71875 103.3625Q26.3125 103.3625 26.09375 103.70625Q25.875 104.05 25.875 105.34688Q25.875 106.3625 26.09375 106.69063Q26.328125 107.01875 26.671875 107.01875Q27.078125 107.01875 27.28125 106.7375Q27.53125 106.37813 27.53125 105.31563ZM34.234375 108.87813Q34.234375 109.8 33.765625 110.34688Q33.296875 110.89375 32.734375 110.89375Q32.15625 110.89375 31.703125 110.3625Q31.25 109.83125 31.25 108.925Q31.25 108.28438 31.484375 107.7375Q31.65625 107.33125 32.0 107.08125Q32.359375 106.81563 32.765625 106.81563Q33.171875 106.81563 33.53125 107.08125Q33.890625 107.34688 34.09375 107.89375Q34.234375 108.2375 34.234375 108.87813ZM33.578125 108.97188Q33.578125 108.1125 33.53125 107.84688Q33.453125 107.39375 33.25 107.22188Q33.046875 107.03438 32.765625 107.03438Q32.375 107.03438 32.140625 107.37813Q31.921875 107.70625 31.921875 109.00313Q31.921875 110.03438 32.140625 110.3625Q32.375 110.69063 32.734375 110.69063Q33.125 110.69063 33.328125 110.40938Q33.578125 110.03438 33.578125 108.97188Z" fill-rule="nonzero"/><path fill="#757575" d="M16.703125 65.75938L16.96875 65.75938Q16.96875 65.94688 16.96875 65.97813L16.984375 66.8375L16.9375 67.60313L16.96875 68.47813L16.96875 69.15L16.984375 70.07188Q16.984375 70.29063 16.96875 70.72813L17.09375 70.74375L17.5 70.74375L17.90625 70.74375L18.234375 70.72813Q18.25 70.91563 18.25 71.00938Q18.25 71.0875 18.234375 71.275Q17.875 71.29063 17.84375 71.29063L17.546875 71.29063L17.3125 71.29063Q17.21875 71.29063 16.96875 71.275Q16.953125 72.10313 16.96875 73.47813Q16.9375 73.525 16.890625 73.525L16.53125 73.54063Q16.40625 73.54063 16.171875 73.525Q16.1875 72.8375 16.1875 72.54063Q16.1875 72.275 16.171875 72.05625Q16.15625 71.66563 16.15625 71.60313Q16.15625 71.49375 16.171875 71.275Q15.921875 71.30625 15.796875 71.30625Q15.71875 71.30625 15.625 71.29063Q15.046875 71.25938 14.96875 71.25938Q14.890625 71.25938 14.59375 71.30625L13.984375 71.275L13.65625 71.29063L13.4375 71.25938L13.15625 71.30625L13.09375 71.275Q13.09375 71.15 13.09375 71.07188Q13.09375 71.00938 13.09375 70.88438Q13.265625 70.66563 13.703125 70.00938L14.84375 68.35313Q15.265625 67.72813 15.546875 67.35313Q15.84375 66.97813 16.125 66.55625Q16.40625 66.13438 16.703125 65.75938ZM16.171875 70.72813L16.171875 69.775L16.171875 69.00938L16.171875 67.04063Q15.6875 67.68125 14.828125 68.9625Q13.859375 70.43125 13.671875 70.72813Q13.9375 70.72813 14.0625 70.72813L15.671875 70.74375Q15.84375 70.74375 16.171875 70.72813ZM24.015625 69.69688Q24.015625 70.30625 23.921875 70.775Q23.765625 71.5875 23.484375 72.13438Q23.203125 72.66563 22.828125 73.04063Q22.546875 73.32188 22.21875 73.44688Q21.90625 73.57188 21.578125 73.57188Q21.0 73.57188 20.484375 73.19688Q19.96875 72.80625 19.578125 71.91563Q19.1875 71.025 19.1875 69.80625Q19.1875 68.86875 19.421875 68.00938Q19.65625 67.13438 20.03125 66.66563Q20.421875 66.18125 20.796875 65.97813Q21.1875 65.75938 21.625 65.75938Q22.25 65.75938 22.84375 66.25938Q23.4375 66.74375 23.78125 67.775Q24.015625 68.47813 24.015625 69.69688ZM23.140625 69.50938Q23.125 68.07188 23.03125 67.55625Q22.875 66.69688 22.5 66.36875Q22.125 66.025 21.625 66.025Q21.203125 66.025 20.828125 66.29063Q20.46875 66.55625 20.328125 67.13438Q20.078125 68.07188 20.078125 69.9625Q20.078125 71.8375 20.453125 72.5875Q20.828125 73.32188 21.578125 73.32188Q22.078125 73.32188 22.453125 73.00938Q22.828125 72.69688 22.984375 71.8375Q23.15625 70.97813 23.140625 69.91563L23.140625 69.50938ZM26.921875 73.79063Q26.96875 73.68125 27.03125 73.57188Q27.109375 73.47813 27.21875 73.275Q27.265625 73.2125 27.65625 72.61875Q28.046875 72.025 28.203125 71.79063Q30.8125 67.35313 31.984375 65.75938L32.046875 65.75938Q32.328125 65.775 32.359375 65.775L29.796875 69.79063L28.640625 71.7125L27.28125 73.775L27.25 73.775Q27.21875 73.775 26.96875 73.79063L26.921875 73.79063ZM28.1875 67.80625Q28.1875 68.72813 27.71875 69.29063Q27.25 69.8375 26.6875 69.8375Q26.09375 69.8375 25.640625 69.30625Q25.203125 68.775 25.203125 67.86875Q25.203125 67.22813 25.421875 66.68125Q25.609375 66.275 25.953125 66.025Q26.3125 65.75938 26.71875 65.75938Q27.125 65.75938 27.484375 66.025Q27.84375 66.29063 28.046875 66.8375Q28.1875 67.18125 28.1875 67.80625ZM27.53125 67.91563Q27.53125 67.05625 27.484375 66.79063Q27.40625 66.3375 27.203125 66.15Q27.0 65.9625 26.71875 65.9625Q26.3125 65.9625 26.09375 66.30625Q25.875 66.65 25.875 67.94688Q25.875 68.9625 26.09375 69.29063Q26.328125 69.61875 26.671875 69.61875Q27.078125 69.61875 27.28125 69.3375Q27.53125 68.97813 27.53125 67.91563ZM34.234375 71.47813Q34.234375 72.4 33.765625 72.94688Q33.296875 73.49375 32.734375 73.49375Q32.15625 73.49375 31.703125 72.9625Q31.25 72.43125 31.25 71.525Q31.25 70.88438 31.484375 70.3375Q31.65625 69.93125 32.0 69.68125Q32.359375 69.41563 32.765625 69.41563Q33.171875 69.41563 33.53125 69.68125Q33.890625 69.94688 34.09375 70.49375Q34.234375 70.8375 34.234375 71.47813ZM33.578125 71.57188Q33.578125 70.7125 33.53125 70.44688Q33.453125 69.99375 33.25 69.82188Q33.046875 69.63438 32.765625 69.63438Q32.375 69.63438 32.140625 69.97813Q31.921875 70.30625 31.921875 71.60313Q31.921875 72.63438 32.140625 72.9625Q32.375 73.29063 32.734375 73.29063Q33.125 73.29063 33.328125 73.00938Q33.578125 72.63438 33.578125 71.57188Z" fill-rule="nonzero"/><path fill="#757575" d="M17.203125 29.234375Q16.546875 29.296875 16.140625 29.296875Q15.84375 29.296875 15.515625 29.265625Q15.328125 29.265625 15.296875 29.265625Q14.578125 29.265625 14.53125 29.296875Q14.5 29.296875 14.5 29.34375Q14.484375 29.4375 14.34375 31.4375Q14.609375 31.296875 14.859375 31.25Q15.109375 31.1875 15.515625 31.1875Q15.796875 31.1875 15.90625 31.21875Q16.46875 31.40625 16.703125 31.546875Q17.046875 31.765625 17.265625 32.03125Q17.484375 32.296875 17.65625 32.828125Q17.78125 33.203125 17.78125 33.609375Q17.78125 34.046875 17.65625 34.4375Q17.53125 34.828125 17.34375 35.09375Q17.15625 35.34375 16.78125 35.625Q16.421875 35.890625 15.921875 36.03125Q15.421875 36.1875 15.25 36.1875L14.40625 36.125Q14.046875 36.0625 13.78125 35.9375Q13.515625 35.796875 13.4375 35.671875Q13.375 35.59375 13.375 35.46875Q13.375 35.375 13.5 35.265625Q13.640625 35.15625 13.84375 35.15625Q13.921875 35.15625 14.03125 35.203125L14.5 35.5Q14.65625 35.640625 14.890625 35.765625Q14.921875 35.78125 15.0625 35.8125Q15.40625 35.859375 15.4375 35.859375Q15.5625 35.859375 15.875 35.75Q16.1875 35.640625 16.4375 35.390625Q16.703125 35.140625 16.890625 34.75Q17.09375 34.359375 17.09375 33.890625Q17.09375 33.03125 16.5625 32.484375Q16.03125 31.9375 15.28125 31.9375Q14.9375 31.9375 14.65625 32.046875Q14.375 32.15625 14.265625 32.296875L14.1875 32.328125Q14.109375 32.359375 14.078125 32.359375L14.015625 32.34375Q13.984375 32.234375 13.984375 32.171875Q13.984375 32.125 14.015625 32.015625Q14.046875 31.734375 14.046875 31.421875Q14.0625 31.109375 14.109375 30.859375L14.09375 30.578125Q14.140625 30.375 14.140625 30.171875Q14.15625 28.828125 14.25 28.625Q14.296875 28.53125 14.390625 28.53125Q14.4375 28.53125 14.53125 28.546875L14.5625 28.546875L15.3125 28.546875Q15.8125 28.5625 16.046875 28.5625Q16.609375 28.5625 16.9375 28.5Q17.109375 28.34375 17.1875 28.34375Q17.21875 28.34375 17.3125 28.359375L17.34375 28.421875L17.296875 28.671875L17.265625 29.0625Q17.25 29.109375 17.203125 29.234375ZM24.015625 32.296875Q24.015625 32.90625 23.921875 33.375Q23.765625 34.1875 23.484375 34.734375Q23.203125 35.265625 22.828125 35.640625Q22.546875 35.921875 22.21875 36.046875Q21.90625 36.171875 21.578125 36.171875Q21.0 36.171875 20.484375 35.796875Q19.96875 35.40625 19.578125 34.515625Q19.1875 33.625 19.1875 32.40625Q19.1875 31.46875 19.421875 30.609375Q19.65625 29.734375 20.03125 29.265625Q20.421875 28.78125 20.796875 28.578125Q21.1875 28.359375 21.625 28.359375Q22.25 28.359375 22.84375 28.859375Q23.4375 29.34375 23.78125 30.375Q24.015625 31.078125 24.015625 32.296875ZM23.140625 32.109375Q23.125 30.671875 23.03125 30.15625Q22.875 29.296875 22.5 28.96875Q22.125 28.625 21.625 28.625Q21.203125 28.625 20.828125 28.890625Q20.46875 29.15625 20.328125 29.734375Q20.078125 30.671875 20.078125 32.5625Q20.078125 34.4375 20.453125 35.1875Q20.828125 35.921875 21.578125 35.921875Q22.078125 35.921875 22.453125 35.609375Q22.828125 35.296875 22.984375 34.4375Q23.15625 33.578125 23.140625 32.515625L23.140625 32.109375ZM26.921875 36.390625Q26.96875 36.28125 27.03125 36.171875Q27.109375 36.078125 27.21875 35.875Q27.265625 35.8125 27.65625 35.21875Q28.046875 34.625 28.203125 34.390625Q30.8125 29.953125 31.984375 28.359375L32.046875 28.359375Q32.328125 28.375 32.359375 28.375L29.796875 32.390625L28.640625 34.3125L27.28125 36.375L27.25 36.375Q27.21875 36.375 26.96875 36.390625L26.921875 36.390625ZM28.1875 30.40625Q28.1875 31.328125 27.71875 31.890625Q27.25 32.4375 26.6875 32.4375Q26.09375 32.4375 25.640625 31.90625Q25.203125 31.375 25.203125 30.46875Q25.203125 29.828125 25.421875 29.28125Q25.609375 28.875 25.953125 28.625Q26.3125 28.359375 26.71875 28.359375Q27.125 28.359375 27.484375 28.625Q27.84375 28.890625 28.046875 29.4375Q28.1875 29.78125 28.1875 30.40625ZM27.53125 30.515625Q27.53125 29.65625 27.484375 29.390625Q27.40625 28.9375 27.203125 28.75Q27.0 28.5625 26.71875 28.5625Q26.3125 28.5625 26.09375 28.90625Q25.875 29.25 25.875 30.546875Q25.875 31.5625 26.09375 31.890625Q26.328125 32.21875 26.671875 32.21875Q27.078125 32.21875 27.28125 31.9375Q27.53125 31.578125 27.53125 30.515625ZM34.234375 34.078125Q34.234375 35.0 33.765625 35.546875Q33.296875 36.09375 32.734375 36.09375Q32.15625 36.09375 31.703125 35.5625Q31.25 35.03125 31.25 34.125Q31.25 33.484375 31.484375 32.9375Q31.65625 32.53125 32.0 32.28125Q32.359375 32.015625 32.765625 32.015625Q33.171875 32.015625 33.53125 32.28125Q33.890625 32.546875 34.09375 33.09375Q34.234375 33.4375 34.234375 34.078125ZM33.578125 34.171875Q33.578125 33.3125 33.53125 33.046875Q33.453125 32.59375 33.25 32.421875Q33.046875 32.234375 32.765625 32.234375Q32.375 32.234375 32.140625 32.578125Q31.921875 32.90625 31.921875 34.203125Q31.921875 35.234375 32.140625 35.5625Q32.375 35.890625 32.734375 35.890625Q33.125 35.890625 33.328125 35.609375Q33.578125 35.234375 33.578125 34.171875Z" fill-rule="nonzero"/><path fill="#757575" d="M85.5951 236.48438L82.923225 236.48438Q82.9076 236.4375 82.9076 236.40625Q82.9076 236.29688 82.93885 236.26562Q82.985725 236.21875 83.204475 236.1875Q83.548225 236.10938 83.766975 236.01562Q83.81385 235.89062 83.81385 235.76562L83.81385 235.40625Q83.81385 235.34375 83.829475 234.8125Q83.8451 234.625 83.8451 233.09375L83.860725 231.71875L83.8451 230.92188Q83.8451 230.73438 83.860725 229.8125Q82.5326 230.75 82.4076 230.75Q82.360725 230.75 82.298225 230.70312Q82.25135 230.65625 82.25135 230.60938Q82.25135 230.54688 82.2826 230.51562Q82.37635 230.4375 82.68885 230.26562Q82.735725 230.23438 83.079475 229.95312Q83.6576 229.46875 83.923225 229.20312Q84.18885 228.9375 84.235725 228.90625Q84.360725 228.89062 84.423225 228.89062Q84.579475 228.89062 84.610725 228.95312Q84.6576 229.0 84.6576 229.29688L84.610725 234.53125L84.610725 235.04688Q84.610725 235.23438 84.5951 235.42188Q84.5951 235.60938 84.5951 235.70312Q84.5951 235.90625 84.6576 235.96875Q84.68885 236.01562 84.860725 236.07812L85.266975 236.15625Q85.516975 236.21875 85.548225 236.25Q85.610725 236.29688 85.610725 236.40625L85.5951 236.48438ZM89.610725 232.75Q89.0326 232.45312 88.829475 232.26562Q88.548225 232.01562 88.3451 231.625Q88.141975 231.21875 88.141975 230.79688Q88.141975 230.07812 88.7201 229.5Q89.298225 228.90625 90.141975 228.90625Q91.079475 228.90625 91.62635 229.40625Q92.18885 229.89062 92.18885 230.60938Q92.18885 231.01562 92.016975 231.34375Q91.860725 231.67188 91.5326 231.92188Q91.31385 232.10938 90.798225 232.375Q91.5951 232.8125 91.75135 232.9375Q92.06385 233.17188 92.2826 233.57812Q92.50135 233.98438 92.50135 234.48438Q92.50135 235.39062 91.860725 236.03125Q91.2201 236.67188 90.235725 236.67188Q89.2201 236.67188 88.62635 236.125Q88.0326 235.5625 88.0326 234.73438Q88.0326 234.28125 88.18885 233.90625Q88.3451 233.51562 88.673225 233.25Q88.93885 233.04688 89.610725 232.75ZM90.5326 232.25Q91.016975 231.96875 91.2201 231.6875Q91.5326 231.21875 91.5326 230.60938Q91.5326 230.14062 91.3451 229.8125Q91.1576 229.46875 90.8451 229.32812Q90.5326 229.17188 90.1576 229.17188Q89.579475 229.17188 89.204475 229.57812Q88.829475 229.96875 88.829475 230.54688Q88.829475 230.89062 88.923225 231.125Q89.0326 231.34375 89.25135 231.53125Q89.391975 231.67188 89.9076 232.0Q89.985725 232.04688 90.2826 232.14062Q90.360725 232.17188 90.5326 232.25ZM89.891975 232.89062Q89.4701 233.10938 89.298225 233.28125Q89.048225 233.51562 88.891975 233.85938Q88.75135 234.20312 88.75135 234.79688Q88.75135 235.42188 89.0326 235.78125Q89.485725 236.375 90.2201 236.375Q90.891975 236.375 91.31385 235.95312Q91.75135 235.51562 91.75135 234.84375Q91.75135 234.10938 91.31385 233.6875Q90.891975 233.26562 89.891975 232.89062ZM93.829475 233.90625L93.9076 233.90625L94.360725 233.92188L95.1576 233.89062L95.7201 233.90625L96.016975 233.89062Q96.43885 233.89062 96.641975 233.9375L96.6576 234.40625Q96.2826 234.4375 96.06385 234.4375Q95.860725 234.4375 95.641975 234.42188Q95.360725 234.40625 95.31385 234.40625L95.06385 234.40625Q94.954475 234.40625 94.81385 234.40625Q94.079475 234.40625 93.798225 234.34375L93.798225 234.17188Q93.798225 234.07812 93.829475 233.90625ZM98.3451 230.59375L98.1576 230.48438Q98.516975 229.59375 99.0326 229.23438Q99.548225 228.85938 100.2201 228.85938Q100.860725 228.85938 101.235725 229.14062Q101.798225 229.5625 101.798225 230.09375Q101.798225 230.51562 101.50135 230.95312Q101.2201 231.39062 100.50135 231.92188L100.641975 231.92188Q101.0951 231.92188 101.516975 232.15625Q101.93885 232.375 102.18885 232.875Q102.43885 233.35938 102.43885 233.92188Q102.43885 235.04688 101.610725 235.85938Q100.7826 236.67188 99.50135 236.67188Q98.516975 236.67188 98.06385 236.375Q97.81385 236.23438 97.81385 236.01562Q97.81385 235.89062 97.9076 235.79688Q98.016975 235.6875 98.173225 235.6875Q98.360725 235.6875 98.641975 235.90625Q99.2826 236.40625 99.766975 236.40625Q100.485725 236.40625 101.048225 235.79688Q101.610725 235.17188 101.610725 234.25Q101.610725 233.46875 101.235725 232.98438Q100.860725 232.48438 100.2826 232.48438Q99.8451 232.48438 99.37635 232.89062L99.235725 232.65625Q99.5326 232.40625 99.766975 232.23438Q100.485725 231.70312 100.829475 231.20312Q101.079475 230.84375 101.079475 230.5625Q101.079475 230.09375 100.75135 229.78125Q100.423225 229.46875 99.891975 229.46875Q99.016975 229.46875 98.3451 230.59375ZM108.5951 232.79688Q108.5951 233.40625 108.50135 233.875Q108.3451 234.6875 108.06385 235.23438Q107.7826 235.76562 107.4076 236.14062Q107.12635 236.42188 106.798225 236.54688Q106.485725 236.67188 106.1576 236.67188Q105.579475 236.67188 105.06385 236.29688Q104.548225 235.90625 104.1576 235.01562Q103.766975 234.125 103.766975 232.90625Q103.766975 231.96875 104.00135 231.10938Q104.235725 230.23438 104.610725 229.76562Q105.00135 229.28125 105.37635 229.07812Q105.766975 228.85938 106.204475 228.85938Q106.829475 228.85938 107.423225 229.35938Q108.016975 229.84375 108.360725 230.875Q108.5951 231.57812 108.5951 232.79688ZM107.7201 232.60938Q107.704475 231.17188 107.610725 230.65625Q107.454475 229.79688 107.079475 229.46875Q106.704475 229.125 106.204475 229.125Q105.7826 229.125 105.4076 229.39062Q105.048225 229.65625 104.9076 230.23438Q104.6576 231.17188 104.6576 233.0625Q104.6576 234.9375 105.0326 235.6875Q105.4076 236.42188 106.1576 236.42188Q106.6576 236.42188 107.0326 236.10938Q107.4076 235.79688 107.56385 234.9375Q107.735725 234.07812 107.7201 233.01562L107.7201 232.60938Z" fill-rule="nonzero"/><path fill="#757575" d="M163.20357 230.59375L163.01607 230.48438Q163.37544 229.59375 163.89107 229.23438Q164.4067 228.85938 165.07857 228.85938Q165.7192 228.85938 166.0942 229.14062Q166.6567 229.5625 166.6567 230.09375Q166.6567 230.51562 166.35982 230.95312Q166.07857 231.39062 165.35982 231.92188L165.50044 231.92188Q165.95357 231.92188 166.37544 232.15625Q166.79732 232.375 167.04732 232.875Q167.29732 233.35938 167.29732 233.92188Q167.29732 235.04688 166.4692 235.85938Q165.64107 236.67188 164.35982 236.67188Q163.37544 236.67188 162.92232 236.375Q162.67232 236.23438 162.67232 236.01562Q162.67232 235.89062 162.76607 235.79688Q162.87544 235.6875 163.0317 235.6875Q163.2192 235.6875 163.50044 235.90625Q164.14107 236.40625 164.62544 236.40625Q165.3442 236.40625 165.9067 235.79688Q166.4692 235.17188 166.4692 234.25Q166.4692 233.46875 166.0942 232.98438Q165.7192 232.48438 165.14107 232.48438Q164.70357 232.48438 164.23482 232.89062L164.0942 232.65625Q164.39107 232.40625 164.62544 232.23438Q165.3442 231.70312 165.68794 231.20312Q165.93794 230.84375 165.93794 230.5625Q165.93794 230.09375 165.60982 229.78125Q165.2817 229.46875 164.75044 229.46875Q163.87544 229.46875 163.20357 230.59375ZM172.45357 236.48438L169.7817 236.48438Q169.76607 236.4375 169.76607 236.40625Q169.76607 236.29688 169.79732 236.26562Q169.8442 236.21875 170.06294 236.1875Q170.4067 236.10938 170.62544 236.01562Q170.67232 235.89062 170.67232 235.76562L170.67232 235.40625Q170.67232 235.34375 170.68794 234.8125Q170.70357 234.625 170.70357 233.09375L170.7192 231.71875L170.70357 230.92188Q170.70357 230.73438 170.7192 229.8125Q169.39107 230.75 169.26607 230.75Q169.2192 230.75 169.1567 230.70312Q169.10982 230.65625 169.10982 230.60938Q169.10982 230.54688 169.14107 230.51562Q169.23482 230.4375 169.54732 230.26562Q169.5942 230.23438 169.93794 229.95312Q170.51607 229.46875 170.7817 229.20312Q171.04732 228.9375 171.0942 228.90625Q171.2192 228.89062 171.2817 228.89062Q171.43794 228.89062 171.4692 228.95312Q171.51607 229.0 171.51607 229.29688L171.4692 234.53125L171.4692 235.04688Q171.4692 235.23438 171.45357 235.42188Q171.45357 235.60938 171.45357 235.70312Q171.45357 235.90625 171.51607 235.96875Q171.54732 236.01562 171.7192 236.07812L172.12544 236.15625Q172.37544 236.21875 172.4067 236.25Q172.4692 236.29688 172.4692 236.40625L172.45357 236.48438ZM174.68794 233.90625L174.76607 233.90625L175.2192 233.92188L176.01607 233.89062L176.57857 233.90625L176.87544 233.89062Q177.29732 233.89062 177.50044 233.9375L177.51607 234.40625Q177.14107 234.4375 176.92232 234.4375Q176.7192 234.4375 176.50044 234.42188Q176.2192 234.40625 176.17232 234.40625L175.92232 234.40625Q175.81294 234.40625 175.67232 234.40625Q174.93794 234.40625 174.6567 234.34375L174.6567 234.17188Q174.6567 234.07812 174.68794 233.90625ZM182.14107 228.85938L182.4067 228.85938Q182.4067 229.04688 182.4067 229.07812L182.42232 229.9375L182.37544 230.70312L182.4067 231.57812L182.4067 232.25L182.42232 233.17188Q182.42232 233.39062 182.4067 233.82812L182.5317 233.84375L182.93794 233.84375L183.3442 233.84375L183.67232 233.82812Q183.68794 234.01562 183.68794 234.10938Q183.68794 234.1875 183.67232 234.375Q183.31294 234.39062 183.2817 234.39062L182.98482 234.39062L182.75044 234.39062Q182.6567 234.39062 182.4067 234.375Q182.39107 235.20312 182.4067 236.57812Q182.37544 236.625 182.32857 236.625L181.9692 236.64062Q181.8442 236.64062 181.60982 236.625Q181.62544 235.9375 181.62544 235.64062Q181.62544 235.375 181.60982 235.15625Q181.5942 234.76562 181.5942 234.70312Q181.5942 234.59375 181.60982 234.375Q181.35982 234.40625 181.23482 234.40625Q181.1567 234.40625 181.06294 234.39062Q180.48482 234.35938 180.4067 234.35938Q180.32857 234.35938 180.0317 234.40625L179.42232 234.375L179.0942 234.39062L178.87544 234.35938L178.5942 234.40625L178.5317 234.375Q178.5317 234.25 178.5317 234.17188Q178.5317 234.10938 178.5317 233.98438Q178.70357 233.76562 179.14107 233.10938L180.2817 231.45312Q180.70357 230.82812 180.98482 230.45312Q181.2817 230.07812 181.56294 229.65625Q181.8442 229.23438 182.14107 228.85938ZM181.60982 233.82812L181.60982 232.875L181.60982 232.10938L181.60982 230.14062Q181.12544 230.78125 180.26607 232.0625Q179.29732 233.53125 179.10982 233.82812Q179.37544 233.82812 179.50044 233.82812L181.10982 233.84375Q181.2817 233.84375 181.60982 233.82812ZM188.64107 229.73438Q187.98482 229.79688 187.57857 229.79688Q187.2817 229.79688 186.95357 229.76562Q186.76607 229.76562 186.73482 229.76562Q186.01607 229.76562 185.9692 229.79688Q185.93794 229.79688 185.93794 229.84375Q185.92232 229.9375 185.7817 231.9375Q186.04732 231.79688 186.29732 231.75Q186.54732 231.6875 186.95357 231.6875Q187.23482 231.6875 187.3442 231.71875Q187.9067 231.90625 188.14107 232.04688Q188.48482 232.26562 188.70357 232.53125Q188.92232 232.79688 189.0942 233.32812Q189.2192 233.70312 189.2192 234.10938Q189.2192 234.54688 189.0942 234.9375Q188.9692 235.32812 188.7817 235.59375Q188.5942 235.84375 188.2192 236.125Q187.85982 236.39062 187.35982 236.53125Q186.85982 236.6875 186.68794 236.6875L185.8442 236.625Q185.48482 236.5625 185.2192 236.4375Q184.95357 236.29688 184.87544 236.17188Q184.81294 236.09375 184.81294 235.96875Q184.81294 235.875 184.93794 235.76562Q185.07857 235.65625 185.2817 235.65625Q185.35982 235.65625 185.4692 235.70312L185.93794 236.0Q186.0942 236.14062 186.32857 236.26562Q186.35982 236.28125 186.50044 236.3125Q186.8442 236.35938 186.87544 236.35938Q187.00044 236.35938 187.31294 236.25Q187.62544 236.14062 187.87544 235.89062Q188.14107 235.64062 188.32857 235.25Q188.5317 234.85938 188.5317 234.39062Q188.5317 233.53125 188.00044 232.98438Q187.4692 232.4375 186.7192 232.4375Q186.37544 232.4375 186.0942 232.54688Q185.81294 232.65625 185.70357 232.79688L185.62544 232.82812Q185.54732 232.85938 185.51607 232.85938L185.45357 232.84375Q185.42232 232.73438 185.42232 232.67188Q185.42232 232.625 185.45357 232.51562Q185.48482 232.23438 185.48482 231.92188Q185.50044 231.60938 185.54732 231.35938L185.5317 231.07812Q185.57857 230.875 185.57857 230.67188Q185.5942 229.32812 185.68794 229.125Q185.73482 229.03125 185.82857 229.03125Q185.87544 229.03125 185.9692 229.04688L186.00044 229.04688L186.75044 229.04688Q187.25044 229.0625 187.48482 229.0625Q188.04732 229.0625 188.37544 229.0Q188.54732 228.84375 188.62544 228.84375Q188.6567 228.84375 188.75044 228.85938L188.7817 228.92188L188.73482 229.17188L188.70357 229.5625Q188.68794 229.60938 188.64107 229.73438Z" fill-rule="nonzero"/><path fill="#757575" d="M246.99956 228.85938L247.26518 228.85938Q247.26518 229.04688 247.26518 229.07812L247.2808 229.9375L247.23393 230.70312L247.26518 231.57812L247.26518 232.25L247.2808 233.17188Q247.2808 233.39062 247.26518 233.82812L247.39018 233.84375L247.79643 233.84375L248.20268 233.84375L248.5308 233.82812Q248.54643 234.01562 248.54643 234.10938Q248.54643 234.1875 248.5308 234.375Q248.17143 234.39062 248.14018 234.39062L247.8433 234.39062L247.60893 234.39062Q247.51518 234.39062 247.26518 234.375Q247.24956 235.20312 247.26518 236.57812Q247.23393 236.625 247.18706 236.625L246.82768 236.64062Q246.70268 236.64062 246.4683 236.625Q246.48393 235.9375 246.48393 235.64062Q246.48393 235.375 246.4683 235.15625Q246.45268 234.76562 246.45268 234.70312Q246.45268 234.59375 246.4683 234.375Q246.2183 234.40625 246.0933 234.40625Q246.01518 234.40625 245.92143 234.39062Q245.3433 234.35938 245.26518 234.35938Q245.18706 234.35938 244.89018 234.40625L244.2808 234.375L243.95268 234.39062L243.73393 234.35938L243.45268 234.40625L243.39018 234.375Q243.39018 234.25 243.39018 234.17188Q243.39018 234.10938 243.39018 233.98438Q243.56206 233.76562 243.99956 233.10938L245.14018 231.45312Q245.56206 230.82812 245.8433 230.45312Q246.14018 230.07812 246.42143 229.65625Q246.70268 229.23438 246.99956 228.85938ZM246.4683 233.82812L246.4683 232.875L246.4683 232.10938L246.4683 230.14062Q245.98393 230.78125 245.12456 232.0625Q244.1558 233.53125 243.9683 233.82812Q244.23393 233.82812 244.35893 233.82812L245.9683 233.84375Q246.14018 233.84375 246.4683 233.82812ZM253.67143 228.82812Q253.73393 228.90625 253.74956 229.01562Q253.7183 229.07812 253.64018 229.10938Q253.39018 229.17188 252.9058 229.4375Q252.79643 229.5 252.23393 229.98438Q251.98393 230.17188 251.62456 230.64062Q251.14018 231.29688 250.92143 231.79688Q250.7183 232.29688 250.54643 233.125Q250.49956 233.35938 250.48393 233.95312L250.4683 234.17188Q250.4683 234.92188 250.9058 235.67188Q251.35893 236.40625 252.01518 236.40625Q252.35893 236.40625 252.6558 236.20312Q252.9683 235.98438 253.14018 235.48438Q253.31206 234.98438 253.31206 234.26562Q253.31206 233.29688 252.93706 232.82812Q252.57768 232.35938 252.04643 232.35938Q251.89018 232.35938 251.76518 232.40625L251.7183 232.42188Q251.64018 232.42188 251.56206 232.25Q251.7183 232.15625 251.93706 232.09375Q252.1558 232.01562 252.2183 232.01562Q252.24956 232.01562 252.74956 232.10938L252.92143 232.1875Q253.20268 232.28125 253.3433 232.39062Q253.60893 232.60938 253.82768 232.9375Q253.93706 233.10938 254.10893 233.64062Q254.12456 233.67188 254.18706 234.15625L254.1558 234.73438Q254.0308 235.26562 253.92143 235.46875Q253.76518 235.79688 253.37456 236.17188Q253.17143 236.375 252.85893 236.5Q252.42143 236.67188 251.92143 236.67188Q250.9683 236.67188 250.31206 235.90625Q249.6558 235.14062 249.6558 233.70312Q249.6558 232.90625 249.89018 232.1875Q250.14018 231.46875 250.5933 230.875Q250.89018 230.46875 251.42143 230.0Q251.95268 229.53125 252.42143 229.28125Q253.04643 228.9375 253.67143 228.82812ZM255.54643 233.90625L255.62456 233.90625L256.0777 233.92188L256.87457 233.89062L257.43707 233.90625L257.73395 233.89062Q258.15582 233.89062 258.35895 233.9375L258.37457 234.40625Q257.99957 234.4375 257.78082 234.4375Q257.5777 234.4375 257.35895 234.42188Q257.0777 234.40625 257.03082 234.40625L256.78082 234.40625Q256.67145 234.40625 256.53082 234.40625Q255.79643 234.40625 255.51518 234.34375L255.51518 234.17188Q255.51518 234.07812 255.54643 233.90625ZM263.67145 228.82812Q263.73395 228.90625 263.74957 229.01562Q263.71832 229.07812 263.6402 229.10938Q263.3902 229.17188 262.90582 229.4375Q262.79645 229.5 262.23395 229.98438Q261.98395 230.17188 261.62457 230.64062Q261.1402 231.29688 260.92145 231.79688Q260.71832 232.29688 260.54645 233.125Q260.49957 233.35938 260.48395 233.95312L260.46832 234.17188Q260.46832 234.92188 260.90582 235.67188Q261.35895 236.40625 262.0152 236.40625Q262.35895 236.40625 262.65582 236.20312Q262.96832 235.98438 263.1402 235.48438Q263.31207 234.98438 263.31207 234.26562Q263.31207 233.29688 262.93707 232.82812Q262.5777 232.35938 262.04645 232.35938Q261.8902 232.35938 261.7652 232.40625L261.71832 232.42188Q261.6402 232.42188 261.56207 232.25Q261.71832 232.15625 261.93707 232.09375Q262.15582 232.01562 262.21832 232.01562Q262.24957 232.01562 262.74957 232.10938L262.92145 232.1875Q263.2027 232.28125 263.34332 232.39062Q263.60895 232.60938 263.8277 232.9375Q263.93707 233.10938 264.10895 233.64062Q264.12457 233.67188 264.18707 234.15625L264.15582 234.73438Q264.03082 235.26562 263.92145 235.46875Q263.7652 235.79688 263.37457 236.17188Q263.17145 236.375 262.85895 236.5Q262.42145 236.67188 261.92145 236.67188Q260.96832 236.67188 260.31207 235.90625Q259.65582 235.14062 259.65582 233.70312Q259.65582 232.90625 259.8902 232.1875Q260.1402 231.46875 260.59332 230.875Q260.8902 230.46875 261.42145 230.0Q261.9527 229.53125 262.42145 229.28125Q263.04645 228.9375 263.67145 228.82812ZM270.31207 232.79688Q270.31207 233.40625 270.21832 233.875Q270.06207 234.6875 269.78082 235.23438Q269.49957 235.76562 269.12457 236.14062Q268.84332 236.42188 268.5152 236.54688Q268.2027 236.67188 267.87457 236.67188Q267.29645 236.67188 266.78082 236.29688Q266.2652 235.90625 265.87457 235.01562Q265.48395 234.125 265.48395 232.90625Q265.48395 231.96875 265.71832 231.10938Q265.9527 230.23438 266.3277 229.76562Q266.71832 229.28125 267.09332 229.07812Q267.48395 228.85938 267.92145 228.85938Q268.54645 228.85938 269.1402 229.35938Q269.73395 229.84375 270.0777 230.875Q270.31207 231.57812 270.31207 232.79688ZM269.43707 232.60938Q269.42145 231.17188 269.3277 230.65625Q269.17145 229.79688 268.79645 229.46875Q268.42145 229.125 267.92145 229.125Q267.49957 229.125 267.12457 229.39062Q266.7652 229.65625 266.62457 230.23438Q266.37457 231.17188 266.37457 233.0625Q266.37457 234.9375 266.74957 235.6875Q267.12457 236.42188 267.87457 236.42188Q268.37457 236.42188 268.74957 236.10938Q269.12457 235.79688 269.28082 234.9375Q269.4527 234.07812 269.43707 233.01562L269.43707 232.60938Z" fill-rule="nonzero"/><path fill="#757575" d="M332.5299 228.82812Q332.5924 228.90625 332.60803 229.01562Q332.57678 229.07812 332.49866 229.10938Q332.24866 229.17188 331.76428 229.4375Q331.6549 229.5 331.0924 229.98438Q330.8424 230.17188 330.48303 230.64062Q329.99866 231.29688 329.7799 231.79688Q329.57678 232.29688 329.4049 233.125Q329.35803 233.35938 329.3424 233.95312L329.32678 234.17188Q329.32678 234.92188 329.76428 235.67188Q330.2174 236.40625 330.87366 236.40625Q331.2174 236.40625 331.51428 236.20312Q331.82678 235.98438 331.99866 235.48438Q332.17053 234.98438 332.17053 234.26562Q332.17053 233.29688 331.79553 232.82812Q331.43616 232.35938 330.9049 232.35938Q330.74866 232.35938 330.62366 232.40625L330.57678 232.42188Q330.49866 232.42188 330.42053 232.25Q330.57678 232.15625 330.79553 232.09375Q331.01428 232.01562 331.07678 232.01562Q331.10803 232.01562 331.60803 232.10938L331.7799 232.1875Q332.06116 232.28125 332.20178 232.39062Q332.4674 232.60938 332.68616 232.9375Q332.79553 233.10938 332.9674 233.64062Q332.98303 233.67188 333.04553 234.15625L333.01428 234.73438Q332.88928 235.26562 332.7799 235.46875Q332.62366 235.79688 332.23303 236.17188Q332.0299 236.375 331.7174 236.5Q331.2799 236.67188 330.7799 236.67188Q329.82678 236.67188 329.17053 235.90625Q328.51428 235.14062 328.51428 233.70312Q328.51428 232.90625 328.74866 232.1875Q328.99866 231.46875 329.45178 230.875Q329.74866 230.46875 330.2799 230.0Q330.81116 229.53125 331.2799 229.28125Q331.9049 228.9375 332.5299 228.82812ZM339.17053 232.79688Q339.17053 233.40625 339.07678 233.875Q338.92053 234.6875 338.63928 235.23438Q338.35803 235.76562 337.98303 236.14062Q337.70178 236.42188 337.37366 236.54688Q337.06116 236.67188 336.73303 236.67188Q336.1549 236.67188 335.63928 236.29688Q335.12366 235.90625 334.73303 235.01562Q334.3424 234.125 334.3424 232.90625Q334.3424 231.96875 334.57678 231.10938Q334.81116 230.23438 335.18616 229.76562Q335.57678 229.28125 335.95178 229.07812Q336.3424 228.85938 336.7799 228.85938Q337.4049 228.85938 337.99866 229.35938Q338.5924 229.84375 338.93616 230.875Q339.17053 231.57812 339.17053 232.79688ZM338.29553 232.60938Q338.2799 231.17188 338.18616 230.65625Q338.0299 229.79688 337.6549 229.46875Q337.2799 229.125 336.7799 229.125Q336.35803 229.125 335.98303 229.39062Q335.62366 229.65625 335.48303 230.23438Q335.23303 231.17188 335.23303 233.0625Q335.23303 234.9375 335.60803 235.6875Q335.98303 236.42188 336.73303 236.42188Q337.23303 236.42188 337.60803 236.10938Q337.98303 235.79688 338.13928 234.9375Q338.31116 234.07812 338.29553 233.01562L338.29553 232.60938ZM340.76428 232.53125L343.6549 232.53125L343.6549 229.625L344.17053 229.625L344.17053 232.53125L347.07678 232.53125L347.07678 233.04688L344.17053 233.04688L344.17053 235.90625L343.6549 235.90625L343.6549 233.04688L340.76428 233.04688L340.76428 232.53125Z" fill-rule="nonzero"/><path fill="#757575" d="M186.89062 25.45024Q187.03125 25.372114 187.14062 25.372114L187.35938 25.372114Q187.4375 25.372114 187.59375 25.35649Q188.34375 25.29399 188.48438 25.23149Q188.82812 25.04399 189.07812 24.57524Q189.57812 23.590864 190.21875 21.76274Q190.51562 20.88774 190.59375 20.70024Q190.84375 20.122114 191.0625 19.465864L191.98438 16.903364Q192.20312 16.29399 193.01562 14.137739Q193.21875 13.590864 193.51562 12.668989L193.79688 12.653364L194.14062 12.653364Q194.5625 13.481489 194.875 14.450239Q195.0625 14.950239 195.45312 15.950239L196.9375 19.965864L197.73438 22.153364Q198.35938 23.997114 198.54688 24.434614Q198.75 24.85649 198.92188 24.997114Q198.96875 25.028364 199.28125 25.10649Q199.59375 25.184614 199.71875 25.23149Q200.17188 25.35649 200.34375 25.434614Q200.39062 25.54399 200.39062 25.60649Q200.39062 25.653364 200.35938 25.747114Q200.04688 25.76274 199.92188 25.76274Q199.42188 25.76274 198.15625 25.73149L197.1875 25.70024L196.0 25.715864Q195.89062 25.715864 195.76562 25.715864Q195.64062 25.70024 195.5625 25.70024L195.34375 25.70024Q195.23438 25.684614 195.14062 25.63774Q195.14062 25.497114 195.1875 25.372114Q195.3125 25.309614 195.40625 25.309614L196.4375 25.23149Q196.82812 25.215864 197.04688 25.122114Q197.09375 24.95024 197.09375 24.85649Q197.09375 24.684614 196.84375 23.95024Q196.67188 23.465864 196.53125 23.028364Q196.40625 22.590864 195.5 20.13774Q195.09375 20.07524 194.79688 20.07524L192.70312 20.090864L192.09375 20.07524Q191.75 20.07524 191.35938 20.122114Q191.23438 20.41899 191.1875 20.54399L190.32812 23.23149Q189.78125 24.76274 189.78125 24.91899Q189.78125 25.01274 189.875 25.215864Q190.07812 25.278364 190.42188 25.32524L191.75 25.434614Q191.85938 25.528364 191.85938 25.590864Q191.85938 25.63774 191.82812 25.747114Q191.39062 25.747114 191.15625 25.747114Q190.375 25.747114 189.32812 25.70024Q188.85938 25.684614 188.65625 25.684614Q188.45312 25.684614 187.9375 25.70024Q187.60938 25.715864 187.45312 25.715864Q187.21875 25.715864 186.85938 25.70024L186.85938 25.63774Q186.85938 25.559614 186.89062 25.45024ZM191.54688 19.590864Q192.59375 19.653364 193.9375 19.653364Q194.70312 19.653364 195.26562 19.60649Q195.17188 19.215864 195.04688 18.88774Q194.40625 17.184614 194.34375 17.01274L193.45312 14.762739L193.35938 14.575239Q193.29688 14.700239 192.92188 15.590864Q192.29688 17.10649 192.03125 17.965864Q191.90625 18.340864 191.76562 18.715864Q191.625 19.090864 191.59375 19.247114Q191.5625 19.38774 191.5 19.54399L191.54688 19.590864ZM203.64062 26.403364Q203.51562 26.35649 202.89062 26.090864Q202.14062 25.60649 201.9375 25.372114Q201.75 25.13774 201.75 24.85649Q201.75 24.60649 201.90625 24.45024Q202.10938 24.215864 202.75 24.01274Q203.39062 23.809614 203.79688 23.60649Q203.67188 23.528364 203.39062 23.35649Q201.9375 22.465864 201.9375 20.872114Q201.9375 19.559614 202.85938 18.653364Q203.78125 17.747114 205.23438 17.747114Q205.89062 17.747114 206.4375 17.934614Q206.75 18.04399 207.35938 18.434614Q207.75 18.66899 207.8125 18.70024Q207.96875 18.747114 208.17188 18.747114Q208.32812 18.747114 208.96875 18.66899Q209.60938 18.590864 209.73438 18.590864Q209.95312 18.590864 210.10938 18.66899Q210.21875 18.872114 210.21875 19.32524Q210.21875 19.48149 210.125 19.559614Q210.04688 19.63774 209.89062 19.63774Q209.625 19.63774 208.98438 19.465864Q208.35938 19.29399 208.23438 19.29399Q208.17188 19.29399 208.04688 19.309614Q208.46875 20.153364 208.46875 20.85649Q208.46875 21.54399 208.01562 22.29399Q207.57812 23.028364 206.8125 23.41899Q206.04688 23.809614 205.25 23.809614Q205.1875 23.809614 204.92188 23.79399Q204.01562 23.79399 203.26562 24.247114Q202.90625 24.465864 202.90625 24.66899Q202.90625 24.872114 203.25 25.07524Q204.1875 25.559614 206.76562 25.63774Q207.89062 25.684614 208.51562 25.965864Q209.14062 26.247114 209.45312 26.79399Q209.78125 27.35649 209.78125 27.934614Q209.78125 28.73149 209.23438 29.403364Q208.70312 30.07524 207.60938 30.497114Q206.51562 30.91899 205.10938 30.91899Q203.54688 30.91899 202.6875 30.528364Q201.84375 30.153364 201.48438 29.70024Q201.125 29.26274 201.125 28.82524Q201.125 28.434614 201.51562 27.85649Q201.90625 27.29399 203.14062 26.66899Q203.5 26.48149 203.64062 26.403364ZM203.25 20.82524Q203.25 21.715864 203.51562 22.309614Q203.78125 22.88774 204.23438 23.184614Q204.6875 23.465864 205.15625 23.465864Q206.01562 23.465864 206.57812 22.82524Q207.14062 22.16899 207.14062 20.840864Q207.14062 19.497114 206.54688 18.809614Q205.96875 18.10649 205.125 18.10649Q204.20312 18.10649 203.71875 18.778364Q203.25 19.434614 203.25 20.82524ZM202.92188 29.872114Q203.8125 30.559614 205.17188 30.559614Q206.14062 30.559614 207.09375 30.247114Q208.0625 29.95024 208.5 29.372114Q208.95312 28.79399 208.95312 28.29399Q208.95312 27.98149 208.79688 27.66899Q208.64062 27.372114 208.35938 27.16899Q208.09375 26.965864 207.65625 26.840864Q207.34375 26.76274 206.76562 26.715864Q205.125 26.590864 204.76562 26.590864Q203.71875 26.590864 202.89062 27.29399Q202.26562 27.840864 202.26562 28.60649Q202.26562 29.309614 202.92188 29.872114ZM217.73438 20.60649L213.8125 20.63774L213.07812 20.63774Q212.625 20.63774 212.15625 20.66899Q212.07812 20.965864 212.07812 21.07524L212.07812 21.16899L212.07812 21.26274L212.07812 21.747114Q212.07812 22.340864 212.45312 23.215864Q212.82812 24.07524 213.51562 24.528364Q214.21875 24.98149 215.26562 25.01274Q215.82812 24.98149 216.15625 24.872114Q216.48438 24.76274 217.09375 24.372114L217.79688 23.79399L217.85938 24.184614Q217.85938 24.26274 217.84375 24.340864Q217.40625 24.88774 216.73438 25.309614Q216.0625 25.73149 215.35938 25.934614Q215.03125 26.01274 214.26562 26.01274Q213.57812 26.01274 212.90625 25.73149Q211.90625 25.309614 211.32812 24.35649Q210.76562 23.403364 210.76562 22.04399Q210.76562 21.60649 210.92188 20.934614Q211.07812 20.26274 211.5 19.497114Q211.78125 18.98149 212.20312 18.653364Q212.78125 18.184614 213.21875 17.997114Q213.85938 17.73149 214.70312 17.73149Q215.60938 17.73149 216.1875 18.059614Q216.96875 18.51274 217.34375 19.20024Q217.73438 19.88774 217.73438 20.465864L217.73438 20.60649ZM212.28125 20.247114L212.75 20.247114Q213.25 20.247114 215.71875 20.090864Q216.10938 20.07524 216.1875 20.01274Q216.375 19.840864 216.375 19.684614Q216.375 19.38774 216.17188 18.997114Q215.98438 18.60649 215.57812 18.403364Q215.17188 18.20024 214.625 18.20024Q213.5 18.20024 212.8125 19.04399Q212.28125 19.684614 212.28125 20.247114Z" fill-rule="nonzero"/></svg>