<?xml version="1.0" standalone="no"?>
<!DOCTYPE svg PUBLIC "-//W3C//DTD SVG 20010904//EN"
 "http://www.w3.org/TR/2001/REC-SVG-20010904/DTD/svg10.dtd">
<svg version="1.0" xmlns="http://www.w3.org/2000/svg"
 width="1250.000000pt" height="1250.000000pt" viewBox="0 0 1250.000000 1250.000000"
 preserveAspectRatio="xMidYMid meet">
<metadata>
Created by potrace 1.11, written by Peter Selinger 2001-2013
</metadata>
<g transform="translate(0.000000,1250.000000) scale(0.100000,-0.100000)"
fill="#000000" stroke="none">
<path d="M5715 12489 c-228 -52 -410 -228 -475 -460 -20 -72 -20 -95 -20
-2704 l0 -2630 -23 -44 c-60 -118 -231 -117 -294 2 -16 30 -17 187 -18 2317
-1 1257 -5 2304 -9 2327 -24 143 -110 291 -226 386 -53 45 -184 110 -255 127
-142 34 -314 12 -449 -57 -106 -55 -222 -175 -274 -284 -22 -46 -46 -113 -53
-149 -10 -51 -13 -561 -14 -2345 -1 -2074 -2 -2283 -17 -2310 -34 -64 -110
-108 -177 -104 -73 5 -145 60 -167 129 -4 14 -8 707 -9 1540 l-1 1515 -22 78
c-27 97 -51 145 -110 222 -99 132 -242 219 -402 246 -61 10 -171 13 -210 4
-14 -3 -37 -7 -51 -10 -156 -29 -343 -172 -422 -322 -65 -125 -76 -189 -82
-491 -29 -1470 -44 -3939 -30 -4932 12 -872 31 -1289 70 -1585 2 -16 7 -52 10
-80 9 -67 13 -92 19 -113 3 -9 7 -35 10 -57 3 -22 10 -65 16 -95 6 -30 13 -66
16 -80 16 -82 70 -284 108 -405 269 -847 772 -1467 1475 -1814 180 -89 428
-182 551 -206 8 -2 44 -11 80 -20 36 -9 72 -18 80 -20 30 -5 105 -18 125 -21
11 -1 34 -5 50 -8 40 -7 113 -16 210 -24 162 -14 646 -6 740 12 11 2 47 7 80
10 128 14 473 87 600 126 17 6 75 24 130 41 291 89 646 250 935 422 131 78
352 226 370 247 3 3 21 17 40 30 92 63 291 239 440 389 233 235 407 457 575
736 44 74 185 353 212 421 30 77 73 195 91 254 114 361 165 518 297 915 84
253 202 604 263 780 60 176 126 370 147 430 20 61 39 117 42 125 3 8 7 20 9
25 4 15 370 1069 431 1240 13 39 36 104 49 145 14 41 29 84 34 95 5 11 21 56
36 100 58 174 152 442 166 475 8 19 15 37 16 40 3 20 11 43 88 265 74 212 95
295 99 385 3 102 -22 163 -92 223 -48 41 -271 112 -416 133 -253 35 -449 -34
-635 -225 -89 -92 -347 -433 -412 -545 -140 -243 -286 -612 -532 -1345 -180
-539 -227 -641 -291 -641 -30 0 -84 48 -106 93 -20 42 -20 55 -16 1287 16
4707 16 4545 1 4622 -45 218 -213 402 -432 474 -190 62 -413 26 -571 -92 -95
-72 -176 -175 -215 -275 -49 -127 -47 -24 -48 -2447 0 -2433 2 -2308 -47
-2361 -10 -10 -37 -29 -61 -41 -69 -36 -159 -17 -215 45 -49 54 -46 -99 -47
2695 0 2255 -2 2625 -15 2685 -49 233 -233 420 -476 482 -40 10 -231 11 -274
2z"/>
</g>
</svg>
