<?xml version="1.0" encoding="utf-8"?>
<!-- Generator: Adobe Illustrator 23.0.2, SVG Export Plug-In . SVG Version: 6.00 Build 0)  -->
<svg version="1.1" id="Layer_1" xmlns="http://www.w3.org/2000/svg" xmlns:xlink="http://www.w3.org/1999/xlink" x="0px" y="0px"
	 viewBox="0 0 30 30" style="enable-background:new 0 0 30 30;" xml:space="preserve">
<style type="text/css">
	.st0{fill:#556571;}
	.st1{fill:#FEFEFF;}
	.st2{fill:#0B1906;}
</style>
<g>
	<path class="st0" d="M3.44,11.19c0.02,0,0.03-0.01,0.03-0.03c0-0.02,0-0.04,0-0.06c0-0.07,0-0.13,0-0.2c0-0.04,0-0.09,0.01-0.13
		c0.01-0.04,0.01-0.08,0.01-0.12c0-0.05,0-0.1,0.01-0.14c0-0.01,0-0.01,0-0.02c0-0.09,0.02-0.18,0.02-0.28
		c0-0.07,0.01-0.13,0.02-0.2C3.57,9.93,3.58,9.84,3.6,9.76c0.02-0.12,0.04-0.23,0.06-0.35c0.03-0.14,0.06-0.28,0.09-0.42
		c0.03-0.15,0.07-0.3,0.11-0.45C3.9,8.35,3.95,8.18,4.01,8c0.02-0.06,0.04-0.13,0.06-0.19c0-0.01,0.01-0.02,0.01-0.04
		C4.09,7.76,4.1,7.75,4.12,7.75c0.01,0,0.01,0,0.02,0C4.2,7.76,4.26,7.76,4.32,7.76c0.08,0,0.16,0,0.24,0c0.05,0,0.1,0,0.14,0.01
		c0.02,0,0.05,0,0.08,0c0.1,0,0.2,0,0.3,0.01c0.06,0,0.13,0,0.19,0.01c0.02,0,0.05,0,0.08,0c0.11,0,0.21,0,0.32,0.01
		c0.04,0,0.09,0,0.13,0.01c0.02,0,0.05,0,0.08,0c0.1,0,0.19,0,0.29,0c0.1,0,0.2,0.01,0.3,0.02c0,0.03-0.02,0.06-0.03,0.09
		C6.25,8.38,6.11,8.83,6,9.3C5.96,9.49,5.93,9.68,5.9,9.87c-0.02,0.11-0.03,0.21-0.04,0.32c-0.01,0.09-0.02,0.17-0.03,0.26
		c-0.02,0.16-0.03,0.32-0.03,0.48c-0.01,0.33-0.01,0.66,0.02,0.99c0.01,0.11,0.02,0.22,0.03,0.33c0.01,0.13,0.03,0.25,0.05,0.38
		c0.02,0.14,0.05,0.28,0.07,0.42c0.01,0.06,0.03,0.12,0.03,0.18c-0.03,0-0.06-0.01-0.09-0.02C5.71,13.14,5.52,13.07,5.32,13
		c-0.16-0.06-0.31-0.11-0.47-0.17c-0.08-0.03-0.16-0.06-0.24-0.09c-0.19-0.07-0.37-0.14-0.56-0.2c-0.16-0.06-0.31-0.11-0.47-0.17
		c-0.02-0.01-0.04-0.01-0.05-0.02C3.52,12.34,3.5,12.32,3.5,12.3c0-0.04,0-0.08,0-0.11c0-0.04,0-0.08-0.01-0.12
		c-0.01-0.03,0-0.06-0.01-0.09c0-0.1,0-0.19-0.01-0.29c0-0.02,0-0.03,0-0.05c0-0.02-0.01-0.03-0.03-0.03
		C3.44,11.47,3.44,11.33,3.44,11.19z"/>
	<path class="st0" d="M23.3,15.23c0.01,0,0.01,0,0.02,0c0.34,0,0.68,0,1.01,0c0.09,0,0.08,0,0.13,0.07
		c0.04,0.06,0.07,0.13,0.11,0.19c0.08,0.15,0.16,0.29,0.24,0.44c0.08,0.15,0.17,0.31,0.26,0.46c0.03,0.05,0.06,0.11,0.09,0.16
		c0.01,0.02,0.01,0.04,0,0.05c-0.02,0.04-0.05,0.08-0.07,0.13c-0.13,0.25-0.28,0.5-0.42,0.74c-0.07,0.12-0.15,0.24-0.23,0.36
		c-0.14,0.22-0.29,0.44-0.44,0.66c-0.13,0.19-0.27,0.38-0.4,0.57c-0.17,0.23-0.34,0.46-0.51,0.69c-0.11,0.14-0.21,0.28-0.32,0.41
		c-0.11,0.14-0.21,0.27-0.32,0.41c-0.07,0.09-0.14,0.17-0.21,0.26c-0.06,0.07-0.12,0.15-0.18,0.22c-0.04,0.05-0.09,0.11-0.13,0.16
		c-0.08,0.1-0.16,0.2-0.24,0.3c-0.08,0.09-0.16,0.19-0.23,0.28c-0.08,0.1-0.16,0.19-0.24,0.29c-0.04,0.05-0.08,0.1-0.12,0.15
		c-0.09,0.11-0.18,0.22-0.28,0.33c-0.08,0.09-0.16,0.18-0.23,0.28c-0.08,0.1-0.16,0.19-0.24,0.29c-0.04,0.05-0.09,0.1-0.13,0.15
		c-0.12,0.15-0.25,0.3-0.37,0.45c-0.08,0.1-0.17,0.2-0.25,0.3c-0.09,0.1-0.17,0.21-0.26,0.31c-0.05,0.06-0.1,0.12-0.16,0.18
		c-0.04,0.04-0.07,0.08-0.1,0.12c-0.09,0.1-0.17,0.21-0.26,0.31c-0.04,0.05-0.08,0.1-0.12,0.15c-0.08,0.1-0.17,0.2-0.25,0.3
		c-0.09,0.1-0.17,0.21-0.26,0.31c-0.09,0.1-0.18,0.21-0.27,0.31c-0.09,0.1-0.17,0.2-0.26,0.31c-0.05,0.05-0.09,0.11-0.14,0.16
		c-0.11,0.12-0.21,0.25-0.32,0.37c-0.06,0.07-0.11,0.13-0.17,0.19c-0.09,0.1-0.17,0.2-0.26,0.31c-0.04,0.05-0.09,0.1-0.13,0.15
		c-0.1,0.11-0.19,0.22-0.29,0.33c-0.09,0.11-0.19,0.22-0.28,0.33c-0.05,0.06-0.11,0.12-0.16,0.19c-0.06,0.07-0.12,0.14-0.17,0.2
		c-0.04,0.05-0.08,0.1-0.12,0.15c-0.06,0.07-0.12,0.13-0.18,0.2c-0.06,0.07-0.12,0.14-0.17,0.2c-0.04,0.04-0.07,0.08-0.11,0.12
		c-0.02,0.03-0.06,0.04-0.09,0.06c-0.02,0.01-0.04,0.01-0.06,0c-0.04-0.01-0.07-0.03-0.1-0.06c-0.06-0.06-0.12-0.12-0.18-0.19
		c-0.06-0.07-0.13-0.14-0.2-0.21c-0.11-0.12-0.22-0.24-0.32-0.35c0,0-0.01-0.01-0.01-0.01c-0.12-0.13-0.24-0.25-0.35-0.38
		c-0.09-0.1-0.19-0.2-0.28-0.3c-0.06-0.07-0.13-0.14-0.19-0.21c-0.09-0.1-0.18-0.2-0.27-0.3c-0.01-0.01-0.01-0.01-0.02-0.02
		c-0.11-0.12-0.22-0.24-0.33-0.36c-0.09-0.1-0.17-0.19-0.26-0.29c-0.01-0.01-0.01-0.01-0.02-0.02c-0.11-0.11-0.21-0.23-0.32-0.34
		c-0.08-0.09-0.16-0.18-0.24-0.27c-0.01-0.01-0.01-0.01-0.02-0.02c-0.09-0.1-0.19-0.21-0.28-0.31c-0.09-0.09-0.17-0.19-0.25-0.29
		c-0.08-0.09-0.16-0.18-0.24-0.27c-0.08-0.09-0.16-0.18-0.24-0.27c-0.01-0.01-0.01-0.01-0.02-0.02c-0.08-0.09-0.17-0.18-0.25-0.28
		c-0.07-0.08-0.14-0.16-0.21-0.24c-0.01-0.01-0.01-0.01-0.02-0.02c-0.08-0.09-0.17-0.18-0.25-0.28c-0.02-0.03-0.04-0.05-0.06-0.08
		c0,0,0-0.01,0-0.01c0,0,0.01-0.01,0.02-0.01c0.01,0,0.02,0,0.03,0.01c0.14,0.04,0.27,0.09,0.41,0.13c0.1,0.03,0.21,0.07,0.31,0.1
		c0.02,0.01,0.04-0.01,0.04-0.03c0.01-0.04,0.02-0.07,0.02-0.11c0.02-0.13,0.05-0.25,0.07-0.38c0.02-0.13,0.05-0.25,0.07-0.38
		c0.02-0.11,0.04-0.21,0.06-0.32c0.02-0.13,0.05-0.26,0.07-0.39c0.01-0.07,0.03-0.14,0.04-0.22c0.02-0.12,0.05-0.24,0.07-0.37
		c0.02-0.12,0.05-0.24,0.07-0.37c0.03-0.16,0.06-0.31,0.09-0.47c0.01-0.07,0.03-0.14,0.04-0.22c0.02-0.13,0.05-0.26,0.07-0.39
		c0.02-0.11,0.04-0.21,0.06-0.32c0.02-0.09,0.03-0.17,0.05-0.26c0-0.01,0.01-0.02,0.02-0.03c0.03,0,0.06,0.02,0.09,0.03
		c0.71,0.27,1.44,0.44,2.19,0.53c0.07,0.01,0.14,0.02,0.21,0.02c0.13,0.01,0.27,0.02,0.4,0.03c0.25,0.01,0.51,0.01,0.77,0.01
		c0.13,0,0.26-0.01,0.39-0.02c0.1-0.01,0.2-0.01,0.3-0.03c0.16-0.02,0.33-0.04,0.49-0.07c0.21-0.04,0.43-0.08,0.64-0.13
		c0.75-0.18,1.47-0.45,2.15-0.81c1.11-0.58,2.06-1.36,2.85-2.32c0.45-0.54,0.82-1.13,1.13-1.76c0.01-0.03,0.03-0.05,0.04-0.08
		C23.31,15.26,23.3,15.25,23.3,15.23z"/>
	<path class="st1" d="M5.99,13.24c0-0.06-0.02-0.12-0.03-0.18c-0.03-0.14-0.05-0.28-0.07-0.42c-0.02-0.13-0.04-0.25-0.05-0.38
		c-0.01-0.11-0.02-0.22-0.03-0.33c-0.03-0.33-0.02-0.66-0.02-0.99c0-0.16,0.02-0.32,0.03-0.48c0.01-0.09,0.02-0.17,0.03-0.26
		c0.01-0.11,0.03-0.21,0.04-0.32C5.93,9.68,5.96,9.49,6,9.3c0.1-0.47,0.24-0.92,0.42-1.37C6.43,7.9,6.45,7.88,6.45,7.84
		c0.01,0,0.03-0.01,0.04,0c0.1,0,0.19,0.01,0.29,0.01c0.03,0,0.05,0.01,0.07,0.02C6.86,7.88,6.88,7.89,6.9,7.9
		c0.09,0.05,0.08,0.05,0.09-0.05c0.01-0.1,0.01-0.2,0.02-0.3C7.02,7.4,7.03,7.27,7.04,7.13c0.01-0.08,0.01-0.16,0.02-0.24
		C7.09,6.87,7.1,6.84,7.11,6.82c0.48-0.78,1.06-1.47,1.75-2.08c0.5-0.45,1.05-0.83,1.64-1.16c0.62-0.34,1.26-0.61,1.94-0.8
		c0.28-0.08,0.57-0.15,0.86-0.2c0.17-0.03,0.33-0.06,0.5-0.08c0.15-0.02,0.31-0.03,0.47-0.05c0.16-0.01,0.32-0.02,0.48-0.03
		c0.29-0.01,0.57,0,0.86,0.02c0.08,0,0.16,0.01,0.24,0.02c0.18,0.02,0.36,0.04,0.54,0.07c0.19,0.03,0.38,0.06,0.57,0.11
		c0.46,0.1,0.92,0.24,1.36,0.41c0.18,0.07,0.36,0.15,0.54,0.23c0.02,0.01,0.04,0.02,0.06,0.02c0,0.01-0.01,0.03-0.01,0.04
		c-0.01,0.02-0.03,0.04-0.04,0.05c-0.29,0.4-0.59,0.8-0.88,1.2c-0.03,0.05-0.07,0.09-0.12,0.13c-0.63,0.56-1.26,1.13-1.89,1.69
		c-0.02,0.01-0.03,0.03-0.05,0.04c-0.01,0.01-0.02,0.01-0.03,0.01c0-0.02-0.02-0.03-0.04-0.04c-0.3-0.22-0.6-0.45-0.9-0.67
		c-0.19-0.14-0.39-0.29-0.58-0.43c-0.03-0.02-0.06-0.04-0.09-0.06c-0.01-0.01-0.03-0.01-0.04,0.01c-0.01,0.01-0.02,0.02-0.03,0.04
		c-0.11,0.14-0.22,0.28-0.33,0.42c-0.46,0.59-0.91,1.18-1.37,1.77c-0.01,0.01-0.02,0.02-0.03,0.04c0,0-0.01,0-0.02,0c0,0,0,0,0-0.01
		c-0.01-0.06-0.02-0.12-0.03-0.18C12.43,7.23,12.42,7.12,12.4,7c-0.02-0.11-0.03-0.22-0.04-0.33c0-0.03-0.01-0.05-0.01-0.07
		c0-0.01-0.01-0.02-0.02-0.02c-0.02,0-0.04,0-0.07,0c-0.03,0-0.06,0.01-0.09,0.01c-0.11,0.02-0.23,0.03-0.34,0.05
		c-0.11,0.02-0.23,0.03-0.34,0.05c-0.12,0.02-0.23,0.03-0.35,0.05C11.08,6.74,11.04,6.75,11,6.76c-0.01,0-0.02,0.01-0.02,0.02
		c0,0.02,0,0.04,0,0.06c0.01,0.1,0.03,0.2,0.04,0.29c0.03,0.21,0.06,0.42,0.09,0.62c0.03,0.21,0.06,0.42,0.08,0.63
		c0.03,0.21,0.06,0.42,0.09,0.63c0,0.03,0.01,0.05,0.01,0.08c0,0.02,0,0.04-0.02,0.05c-0.01,0.01-0.03,0.03-0.03,0.05l0,0
		c-0.01,0-0.02,0.01-0.02,0.02c-0.02,0.01-0.04,0.02-0.05,0.02c-0.01,0-0.03,0-0.04,0.01c-0.09,0.03-0.17,0.06-0.26,0.09
		c-0.1,0.03-0.19,0.06-0.29,0.09c-0.02,0-0.03,0.01-0.04,0.02c-0.01,0.01-0.03,0.03-0.04,0.04c-0.25,0.25-0.5,0.49-0.75,0.74
		c-0.33,0.32-0.66,0.65-0.99,0.97c-0.02,0.02-0.04,0.05-0.07,0.07c0,0,0,0.01,0,0.01c0,0,0.01,0.01,0.01,0.01c0.03,0,0.06,0,0.1,0
		c0.47,0,0.94,0,1.4,0c0.03,0,0.06,0,0.09,0c0.14,0.01,0.24,0.11,0.25,0.25c0,0.03,0,0.06,0,0.09c0,0.49,0,0.99,0,1.48
		c0,0.03,0,0.06,0,0.1c-0.02,0-0.04,0-0.06,0c-0.18-0.03-0.36-0.07-0.54-0.1c-0.15-0.03-0.31-0.06-0.46-0.09
		c-0.19-0.04-0.38-0.07-0.57-0.11c-0.08-0.01-0.16-0.03-0.23-0.04c-0.07-0.01-0.08-0.01-0.15,0c-0.16,0.03-0.31,0.06-0.47,0.09
		C7.9,12.97,7.74,13,7.59,13.03c-0.17,0.03-0.33,0.06-0.5,0.09c-0.14,0.03-0.29,0.05-0.43,0.08c-0.17,0.03-0.34,0.06-0.51,0.09
		c-0.01,0-0.03,0-0.04,0C6.07,13.27,6.03,13.26,5.99,13.24z M7.88,8.45C7.88,8.46,7.89,8.46,7.88,8.45c0.02,0.01,0.02,0.01,0.02,0
		c0.01-0.01,0.01-0.01,0-0.02C7.9,8.43,7.89,8.43,7.88,8.42c-0.04-0.03-0.1-0.04-0.15-0.05C7.78,8.4,7.82,8.44,7.88,8.45z
		 M9.79,9.53c0.02,0,0.04-0.01,0.07-0.01c0.2-0.04,0.39-0.07,0.59-0.11c0.01,0,0.01,0,0.01-0.01c0-0.01-0.01-0.01-0.01-0.02
		c-0.02-0.01-0.05-0.02-0.07-0.03C9.71,9.11,9.06,8.86,8.4,8.61c-0.14-0.05-0.27-0.1-0.41-0.15C7.96,8.45,7.94,8.45,7.92,8.44
		c0,0-0.01,0.01-0.01,0.01c0,0,0,0.01,0,0.02C7.93,8.49,7.96,8.5,7.98,8.52c0.5,0.29,1,0.57,1.5,0.86c0.08,0.05,0.17,0.09,0.25,0.14
		C9.75,9.53,9.77,9.53,9.79,9.53z"/>
	<path class="st1" d="M23.3,15.23c0,0.01,0.01,0.03,0,0.04c-0.01,0.03-0.02,0.05-0.04,0.08c-0.31,0.63-0.69,1.21-1.13,1.76
		c-0.79,0.97-1.74,1.74-2.85,2.32c-0.68,0.36-1.4,0.63-2.15,0.81c-0.21,0.05-0.42,0.09-0.64,0.13c-0.16,0.03-0.33,0.05-0.49,0.07
		c-0.1,0.01-0.2,0.02-0.3,0.03c-0.13,0.01-0.26,0.02-0.39,0.02c-0.26,0.01-0.51,0.01-0.77-0.01c-0.13-0.01-0.27-0.02-0.4-0.03
		c-0.07-0.01-0.14-0.01-0.21-0.02c-0.75-0.08-1.48-0.26-2.19-0.53c-0.03-0.01-0.06-0.03-0.09-0.03c0-0.01,0.01-0.02,0.01-0.02
		c0.01-0.01,0.03-0.02,0.05-0.03c0.14-0.09,0.27-0.18,0.41-0.27c0.02-0.01,0.03-0.02,0.04-0.04c0,0,0-0.01,0-0.02
		c-0.01-0.02-0.03-0.04-0.05-0.06c-0.49-0.58-0.98-1.17-1.46-1.75c-0.07-0.09-0.15-0.18-0.22-0.26c-0.01-0.01-0.02-0.03-0.03-0.05
		c0,0,0-0.01,0-0.02c0.02-0.01,0.04-0.03,0.06-0.04c0.4-0.24,0.81-0.49,1.21-0.73c0.08-0.05,0.16-0.1,0.25-0.15
		c0.03-0.02,0.06-0.03,0.09-0.04c0.03,0.02,0.06,0.01,0.09,0.01c0.42,0,0.83,0,1.25,0c0.02,0,0.04,0,0.07,0
		c0.02,0,0.03-0.01,0.03-0.04c0-0.01,0-0.02,0-0.03c0-0.25,0-0.51,0-0.76c0-0.02,0-0.03-0.01-0.05c0.01-0.02,0.03-0.03,0.05-0.04
		c0.06-0.04,0.12-0.07,0.18-0.11c0.02-0.01,0.04-0.02,0.06-0.04c0.01-0.01,0.01-0.02,0-0.02c-0.01-0.02-0.03-0.03-0.04-0.05
		c-0.07-0.08-0.14-0.16-0.21-0.23c-0.02-0.02-0.04-0.05-0.04-0.07c0.02-0.03,0.01-0.06,0.01-0.09c0-0.31,0-0.61,0-0.92
		c0-0.29,0-0.59,0-0.88c0-0.07,0-0.15,0.02-0.22c0.08-0.34,0.28-0.57,0.61-0.68c0.09-0.03,0.18-0.04,0.27-0.04c0.4,0,0.8,0,1.21,0
		c0.17,0,0.34,0,0.52,0c0.07,0,0.14,0.01,0.21,0.02c0.42,0.1,0.68,0.47,0.68,0.85c0,0.04,0,0.07,0,0.11c0,0.61,0,1.22,0,1.83
		c0,0.03,0,0.06,0,0.09c0,0.01,0.01,0.02,0.01,0.04c0,0.03-0.02,0.06-0.04,0.08c-0.08,0.1-0.15,0.21-0.23,0.31
		c-0.16,0.22-0.32,0.44-0.48,0.66c-0.01,0.02-0.03,0.04-0.04,0.06c-0.05,0.04-0.07,0.09-0.11,0.14c-0.01,0.01-0.02,0.03-0.02,0.04
		c0,0,0,0.01,0,0.02c-0.02,0-0.02,0-0.02,0.02c-0.01,0.01-0.02,0.01-0.02,0.02c0,0,0,0,0,0s0,0,0,0c0.01-0.01,0.01-0.01,0.02-0.02
		c0.01,0,0.02-0.01,0.02-0.02c0.06-0.05,0.1-0.11,0.15-0.16c0,0,0-0.01,0-0.01c0.15-0.17,0.3-0.34,0.46-0.51
		c0.09-0.1,0.17-0.2,0.26-0.29c0.01-0.02,0.03-0.04,0.05-0.04c0,0.31,0,0.62,0,0.94c0,0.03,0,0.06,0,0.09
		c0,0.02,0.01,0.03,0.03,0.03c0.02,0,0.04,0,0.07,0c0.67,0,1.34,0,2.01,0c0.06,0,0.11,0,0.17-0.02c0.31-0.07,0.48-0.33,0.5-0.56
		c0-0.04,0-0.08,0-0.11c0-0.31,0-0.61,0-0.92c0-0.02,0-0.04,0-0.07c0-0.01-0.01-0.02-0.01-0.03c0.02-0.02,0.04-0.03,0.07-0.04
		c0.11-0.03,0.22-0.07,0.33-0.1c0.18-0.06,0.36-0.11,0.54-0.17c0.05-0.02,0.09-0.02,0.14-0.02c0.12,0.01,0.24,0.02,0.36,0.04
		c0.09,0.01,0.18,0.02,0.28,0.03c0.1,0.01,0.2,0.02,0.29,0.03c0.08,0.01,0.16,0.02,0.24,0.02c0.1,0.01,0.19,0.02,0.29,0.03
		c0.07,0.01,0.13,0.01,0.2,0.02c0.02,0,0.04,0.01,0.06,0.03c0.02,0.02,0.04,0.03,0.06,0.05c0.2,0.19,0.4,0.38,0.6,0.57
		c0.02,0.02,0.03,0.03,0.05,0.05C23.25,15.24,23.28,15.24,23.3,15.23z"/>
	<path class="st0" d="M16.98,15.04c0-0.01-0.01-0.02-0.01-0.04c0-0.03,0-0.06,0-0.09c0-0.61,0-1.22,0-1.83c0-0.04,0-0.07,0-0.11
		c0-0.38-0.26-0.75-0.68-0.85c-0.07-0.02-0.14-0.03-0.21-0.02c-0.17,0-0.34,0-0.52,0c-0.4,0-0.8,0-1.21,0
		c-0.09,0-0.19,0.01-0.27,0.04c-0.33,0.11-0.54,0.34-0.61,0.68c-0.02,0.07-0.02,0.15-0.02,0.22c0,0.29,0,0.59,0,0.88
		c0,0.31,0,0.61,0,0.92c0,0.03,0.01,0.06-0.01,0.09c-0.01,0-0.03,0-0.03-0.01c-0.04-0.05-0.09-0.09-0.13-0.14
		c-0.01-0.01-0.02-0.03-0.03-0.04c-0.09-0.09-0.17-0.19-0.26-0.28c-0.09-0.1-0.18-0.2-0.27-0.3c0,0-0.01-0.01-0.01-0.01
		c-0.09-0.1-0.18-0.19-0.26-0.29c-0.08-0.09-0.16-0.18-0.24-0.27c-0.02-0.02-0.04-0.04-0.06-0.06c-0.02-0.02-0.05-0.04-0.08-0.05
		c-0.03-0.01-0.07-0.01-0.1-0.02c-0.09-0.02-0.18-0.03-0.26-0.05c-0.13-0.02-0.26-0.05-0.39-0.07c-0.08-0.01-0.16-0.03-0.23-0.05
		c-0.09-0.02-0.18-0.03-0.27-0.05c-0.04-0.01-0.08-0.01-0.12-0.02c-0.03-0.01-0.07-0.01-0.1-0.02c-0.01,0-0.02-0.01-0.03-0.02
		c0-0.03,0-0.06,0-0.1c0-0.49,0-0.99,0-1.48c0-0.03,0-0.06,0-0.09c-0.01-0.14-0.11-0.24-0.25-0.25c-0.03,0-0.06,0-0.09,0
		c-0.47,0-0.94,0-1.4,0c-0.03,0-0.06,0-0.1,0c0,0-0.01-0.01-0.01-0.01c0,0,0-0.01,0-0.01c0.02-0.02,0.04-0.05,0.07-0.07
		c0.33-0.32,0.66-0.65,0.99-0.97c0.25-0.25,0.5-0.49,0.75-0.74c0.01-0.01,0.03-0.03,0.04-0.04c0.01-0.01,0.03-0.02,0.04-0.02
		c0.1-0.03,0.19-0.06,0.29-0.09c0.09-0.03,0.17-0.06,0.26-0.09c0.01,0,0.02,0,0.04-0.01c0.01,0.01,0.02,0.02,0.02,0.02
		c0.03,0,0.06,0,0.09-0.01c0.08-0.01,0.16-0.03,0.23-0.05c0.13-0.02,0.26-0.05,0.38-0.07c0.11-0.02,0.21-0.04,0.32-0.06
		C12.35,9.05,12.47,9.02,12.6,9c0.12-0.02,0.24-0.05,0.37-0.07c0.12-0.02,0.24-0.05,0.37-0.07c0.07-0.01,0.14-0.03,0.22-0.04
		c0.13-0.02,0.26-0.05,0.39-0.07c0.06-0.01,0.11-0.02,0.17-0.03c0.07,0,0.15,0,0.22,0.01c0.05,0.01,0.11,0.01,0.16,0.01
		c0.02,0,0.04,0,0.06,0c0.05,0.01,0.09,0.01,0.14,0.01c0.03,0,0.05,0,0.08,0c0.05,0.01,0.11,0.01,0.16,0.02c0.02,0,0.04,0,0.06,0
		c0.05,0.01,0.09,0.01,0.14,0.01c0.03,0,0.05,0,0.08,0.01c0.04,0.01,0.08,0.01,0.11,0.01c0.1,0,0.2,0.02,0.3,0.02
		c0.01,0,0.01,0,0.02,0c0.04,0.01,0.08,0.01,0.12,0.01c0.03,0,0.05,0,0.08,0.01c0.06,0.01,0.11,0.01,0.17,0.02c0.02,0,0.04,0,0.06,0
		c0.05,0.01,0.11,0.01,0.16,0.02c0.03,0,0.05,0,0.08,0.01c0.05,0.01,0.09,0.01,0.14,0.01c0,0,0.01,0,0.01,0c0.01,0,0.01,0,0-0.01
		c-0.01-0.02-0.04-0.02-0.06-0.03c-0.2-0.1-0.41-0.2-0.61-0.3c-0.15-0.07-0.29-0.14-0.44-0.21c-0.19-0.09-0.38-0.18-0.57-0.27
		c-0.11-0.05-0.22-0.11-0.34-0.16c-0.02-0.01-0.05-0.02-0.07-0.03c-0.02-0.01-0.03,0-0.04,0.01c-0.04,0.03-0.07,0.07-0.11,0.1
		c-0.09,0.08-0.18,0.16-0.26,0.23c-0.06,0.05-0.12,0.11-0.18,0.16c-0.02,0.02-0.05,0.03-0.07,0.04c-0.02,0.01-0.04,0.01-0.06,0.02
		c-0.26,0.08-0.53,0.17-0.79,0.25c-0.3,0.09-0.59,0.19-0.89,0.28c-0.18,0.06-0.36,0.12-0.55,0.17c-0.03,0.01-0.06,0.02-0.09,0.03
		c-0.02,0.01-0.04,0.01-0.07,0.01c0-0.02,0.01-0.03,0.03-0.05c0.01-0.02,0.02-0.03,0.02-0.05c0-0.03,0-0.05-0.01-0.08
		c-0.03-0.21-0.06-0.42-0.09-0.63c-0.03-0.21-0.06-0.42-0.08-0.63c-0.03-0.21-0.06-0.42-0.09-0.62c-0.01-0.1-0.03-0.2-0.04-0.29
		c0-0.02,0-0.04,0-0.06c0-0.01,0.01-0.02,0.02-0.02c0.04-0.01,0.08-0.01,0.12-0.02c0.12-0.02,0.23-0.03,0.35-0.05
		c0.11-0.02,0.23-0.03,0.34-0.05c0.11-0.02,0.23-0.03,0.34-0.05c0.03,0,0.06-0.01,0.09-0.01c0.02,0,0.04,0,0.07,0
		c0.01,0,0.02,0.01,0.02,0.02c0.01,0.02,0.01,0.05,0.01,0.07C12.37,6.78,12.38,6.89,12.4,7c0.02,0.12,0.03,0.23,0.05,0.35
		c0.01,0.06,0.02,0.12,0.03,0.18c0,0,0,0.01,0,0.01c0.01,0,0.01,0,0.02,0c0.01-0.01,0.02-0.02,0.03-0.04
		c0.46-0.59,0.91-1.18,1.37-1.77c0.11-0.14,0.22-0.28,0.33-0.42c0.01-0.01,0.02-0.03,0.03-0.04c0.01-0.01,0.03-0.02,0.04-0.01
		c0.03,0.02,0.06,0.04,0.09,0.06c0.19,0.14,0.39,0.29,0.58,0.43c0.3,0.22,0.6,0.45,0.9,0.67c0.01,0.01,0.03,0.02,0.04,0.04
		c0,0.01,0,0.03-0.01,0.03c-0.07,0.06-0.14,0.13-0.22,0.19c0,0-0.01,0.01-0.01,0.01c-0.09,0.09-0.19,0.17-0.28,0.26
		c-0.09,0.08-0.19,0.17-0.28,0.25c0,0-0.01,0.01-0.01,0.01c-0.09,0.08-0.18,0.17-0.28,0.25c-0.05,0.04-0.1,0.08-0.14,0.13
		c-0.01,0.01-0.02,0.02-0.02,0.03c0,0,0,0.01,0,0.01c0,0,0.01,0.01,0.01,0.01c0.01,0,0.02-0.01,0.03-0.02
		c0.12-0.08,0.25-0.17,0.37-0.25c0.13-0.09,0.26-0.17,0.39-0.26c0.19-0.13,0.37-0.25,0.56-0.38c0.17-0.12,0.35-0.24,0.52-0.35
		c0.03-0.02,0.05-0.04,0.08-0.05c0.01-0.01,0.02-0.01,0.03-0.01c0.03,0.03,0.06,0.06,0.1,0.09c0.72,0.7,1.43,1.41,2.15,2.11
		c0.55,0.54,1.09,1.07,1.64,1.61c0.38,0.37,0.75,0.74,1.13,1.11c0.02,0.02,0.04,0.05,0.07,0.07c0.01,0.01,0.01,0.02,0.01,0.02
		c0,0.01-0.02,0.01-0.02,0.01c-0.03,0-0.06,0-0.09,0c-0.51,0-1.03,0-1.54,0c-0.03,0-0.06,0-0.1,0c-0.09,0.01-0.16,0.05-0.2,0.14
		c-0.01,0.02-0.02,0.04-0.03,0.06c-0.01,0-0.01,0-0.02,0c-0.03-0.02-0.06-0.04-0.08-0.07c-0.08-0.07-0.16-0.14-0.24-0.22
		c-0.01-0.01-0.01-0.01-0.02-0.02c-0.03-0.03-0.06-0.03-0.09-0.02c-0.02,0.01-0.05,0.01-0.07,0.02c-0.17,0.05-0.34,0.1-0.51,0.15
		c-0.2,0.06-0.4,0.12-0.61,0.17c-0.05,0.01-0.1,0.03-0.15,0.04c-0.04,0.01-0.09,0.01-0.13,0c-0.12-0.04-0.23-0.07-0.35-0.11
		c-0.21-0.07-0.43-0.13-0.64-0.2c-0.12-0.04-0.24-0.07-0.36-0.11c-0.04-0.01-0.09-0.02-0.13-0.02c-0.08,0.01-0.16,0-0.24,0.02
		c-0.02,0-0.04,0-0.07,0c-0.06,0-0.12,0-0.18,0.02c-0.02,0-0.04,0-0.07,0c-0.05,0-0.11,0-0.16,0.01c-0.02,0-0.04,0-0.06,0
		c-0.07,0-0.13,0-0.2,0.02c-0.02,0.01-0.05,0-0.08,0c-0.05,0-0.11,0.01-0.16,0.01c-0.06,0.01-0.13,0.01-0.19,0.01
		c-0.02,0-0.04-0.01-0.06-0.02c-0.09-0.03-0.17-0.07-0.26-0.1c-0.15-0.06-0.31-0.12-0.46-0.18c0,0-0.01,0-0.02,0c0,0,0,0.01,0,0.01
		c0.08,0.07,0.15,0.13,0.23,0.2c0.06,0.05,0.13,0.11,0.19,0.16c0.1,0.08,0.19,0.17,0.29,0.25c0.03,0.02,0.06,0.04,0.1,0.04
		c0.06,0,0.12,0,0.18,0c0.08,0,0.17,0,0.25,0c0.04,0,0.09,0,0.13,0.01c0.03,0.01,0.06,0,0.09,0c0.11,0,0.22,0,0.33,0
		c0.05,0,0.09,0.01,0.14,0.03c0.27,0.11,0.53,0.21,0.8,0.32c0.32,0.13,0.63,0.25,0.95,0.38c0.04,0.02,0.08,0.02,0.12,0.01
		c0.07-0.01,0.14-0.03,0.21-0.04c0.13-0.03,0.26-0.05,0.38-0.07c0.11-0.02,0.21-0.04,0.32-0.06c0.05-0.01,0.1-0.02,0.15-0.03
		c0.03-0.01,0.06,0,0.08,0.02c0.02,0.02,0.04,0.04,0.06,0.06c0.15,0.14,0.3,0.28,0.45,0.42c0.05,0.04,0.1,0.08,0.14,0.13
		c0.01,0.01,0.01,0.01,0.02,0.02c0,0.01-0.01,0.02-0.01,0.04c0,0.03,0,0.06,0,0.09c0,0.33,0,0.66,0,0.99c0,0.03,0.01,0.06-0.01,0.09
		c-0.01,0.01-0.01,0.02-0.02,0.02c-0.01,0.01-0.03,0.01-0.04,0.02c-0.15,0.05-0.29,0.1-0.44,0.16c-0.06,0.02-0.13,0.04-0.19,0.07
		c-0.05,0.02-0.09,0.02-0.14,0.01c-0.13-0.03-0.27-0.06-0.4-0.09c-0.23-0.05-0.46-0.11-0.7-0.16c-0.02,0-0.04-0.01-0.06-0.01
		c-0.01,0-0.02,0-0.03,0.01c-0.02,0.02-0.03,0.03-0.04,0.05c-0.11,0.14-0.21,0.29-0.32,0.43c-0.11,0.16-0.23,0.31-0.34,0.47
		c-0.01,0.01-0.02,0.02-0.03,0.03C17,15.04,16.99,15.04,16.98,15.04z M14.52,7.73c0.02,0,0.03,0,0.04-0.02
		c0.02,0,0.04-0.01,0.04-0.03c0.02-0.01,0.02-0.02,0.01-0.02c0,0-0.01,0.01-0.01,0.01c-0.02,0-0.04,0.02-0.04,0.04
		C14.55,7.71,14.53,7.71,14.52,7.73C14.52,7.73,14.51,7.73,14.52,7.73C14.52,7.73,14.52,7.73,14.52,7.73z"/>
	<path class="st1" d="M19.76,11.54c0.01-0.02,0.02-0.04,0.03-0.06c0.04-0.08,0.11-0.13,0.2-0.14c0.03,0,0.06,0,0.1,0
		c0.51,0,1.03,0,1.54,0c0.03,0,0.06,0,0.09,0c0.01,0,0.02,0,0.02-0.01c0-0.01,0-0.02-0.01-0.02c-0.02-0.02-0.04-0.05-0.07-0.07
		c-0.38-0.37-0.75-0.74-1.13-1.11c-0.55-0.54-1.09-1.07-1.64-1.61c-0.72-0.7-1.43-1.41-2.15-2.11c-0.03-0.03-0.06-0.06-0.1-0.09
		c0.02-0.03,0.05-0.04,0.07-0.06c0.32-0.22,0.64-0.43,0.96-0.65c0.1-0.07,0.2-0.13,0.29-0.2c0.01-0.01,0.03-0.02,0.04-0.02
		c0,0,0.01,0,0.02,0c0.03,0.02,0.05,0.05,0.08,0.07c0.51,0.48,1.02,0.96,1.53,1.44c0.07,0.06,0.04,0.06,0.14,0.04
		c0.27-0.04,0.54-0.09,0.81-0.13c0.23-0.04,0.46-0.08,0.69-0.11c0.25-0.04,0.5-0.08,0.74-0.13c0.02,0,0.04,0,0.06-0.01
		c0.03-0.01,0.06,0,0.09,0.03c0.21,0.19,0.43,0.38,0.64,0.56c0.22,0.19,0.44,0.38,0.65,0.57c0.03,0.03,0.06,0.05,0.08,0.08
		c0,0.02,0,0.03,0.01,0.05c0.04,0.1,0.08,0.2,0.12,0.3c0.13,0.37,0.24,0.74,0.33,1.12c0.05,0.2,0.08,0.4,0.11,0.6
		c0.02,0.12,0.03,0.23,0.05,0.35c0.01,0.07,0.02,0.15,0.02,0.22c0.02,0.17,0.03,0.33,0.03,0.5c0.01,0.33,0.01,0.66-0.02,0.98
		c-0.01,0.11-0.02,0.23-0.03,0.34c-0.01,0.13-0.03,0.25-0.05,0.38c-0.03,0.2-0.06,0.4-0.11,0.59c-0.05,0.25-0.12,0.5-0.19,0.74
		c0,0.01-0.01,0.03-0.01,0.05c-0.03,0.01-0.05,0.01-0.07-0.01c-0.02-0.02-0.04-0.04-0.05-0.05c-0.25-0.25-0.51-0.49-0.76-0.74
		c-0.02-0.02-0.03-0.03-0.05-0.05c-0.01-0.01-0.03-0.02-0.05-0.03c-0.15-0.03-0.29-0.05-0.44-0.08c-0.16-0.03-0.32-0.06-0.48-0.08
		c-0.16-0.03-0.32-0.06-0.48-0.09c-0.03-0.01-0.06-0.01-0.09-0.02c-0.09-0.01-0.09-0.02-0.15-0.07c-0.45-0.4-0.9-0.79-1.35-1.19
		c-0.02-0.02-0.04-0.03-0.06-0.05C19.77,11.56,19.76,11.55,19.76,11.54z"/>
	<path class="st0" d="M18.91,3.3c-0.02,0-0.04-0.01-0.06-0.02c-0.18-0.08-0.36-0.16-0.54-0.23c-0.44-0.17-0.9-0.31-1.36-0.41
		c-0.19-0.04-0.38-0.08-0.57-0.11c-0.18-0.03-0.36-0.05-0.54-0.07c-0.08-0.01-0.16-0.02-0.24-0.02c-0.29-0.02-0.57-0.03-0.86-0.02
		c-0.16,0.01-0.32,0.01-0.48,0.03c-0.16,0.01-0.31,0.03-0.47,0.05c-0.17,0.02-0.33,0.05-0.5,0.08c-0.29,0.05-0.57,0.12-0.86,0.2
		c-0.68,0.19-1.32,0.46-1.94,0.8C9.91,3.91,9.37,4.29,8.86,4.74c-0.69,0.61-1.27,1.3-1.75,2.08C7.1,6.84,7.09,6.87,7.06,6.89
		c-0.01-0.05,0-0.1,0-0.15c0-0.02,0.01-0.03,0.01-0.05c0-0.12,0.02-0.25,0.02-0.37c0-0.06,0-0.13,0.01-0.19
		c0.01-0.06,0-0.11,0.01-0.17c0-0.04,0.01-0.08,0.01-0.11c0-0.01,0-0.02,0-0.03c0-0.14,0.02-0.28,0.02-0.42c0-0.04,0-0.09,0.01-0.13
		c0.01-0.02,0-0.05,0.01-0.08c0-0.08,0-0.15,0.02-0.23c0.01-0.03,0-0.07,0-0.11c0-0.06,0-0.11,0.01-0.17c0.01-0.04,0-0.08,0.01-0.11
		c0-0.06,0-0.11,0.01-0.17c0.01-0.04,0-0.08,0.01-0.12c0-0.05,0-0.11,0.01-0.16c0.01-0.03,0-0.06,0.01-0.1c0-0.07,0-0.13,0.01-0.2
		c0.01-0.04,0-0.09,0.01-0.13c0-0.05,0-0.1,0.01-0.14c0-0.02,0-0.04,0-0.07c0-0.04,0-0.09,0-0.13c0-0.03,0.01-0.06,0.04-0.08
		c0.04-0.04,0.08-0.07,0.12-0.11C7.5,3.1,7.56,3.05,7.61,3.01c0.18-0.15,0.37-0.3,0.56-0.43c0.17-0.12,0.34-0.24,0.51-0.35
		c0.2-0.13,0.4-0.25,0.6-0.37c0.24-0.14,0.49-0.26,0.74-0.39c0.22-0.11,0.45-0.21,0.68-0.3c0.27-0.11,0.55-0.21,0.83-0.3
		c0.21-0.07,0.43-0.13,0.64-0.19c0.14-0.04,0.28-0.07,0.42-0.1c0.15-0.03,0.3-0.07,0.46-0.09c0.09-0.01,0.19-0.03,0.28-0.05
		c0.06-0.01,0.13-0.01,0.19-0.03c0.08-0.02,0.17-0.01,0.26-0.03c0.01,0,0.03,0,0.04,0c0.01,0,0.02,0,0.03,0
		c0.06-0.01,0.11-0.01,0.17-0.02c0.05,0,0.11,0,0.16-0.01c0.03-0.01,0.07,0,0.1-0.01c0.07,0,0.14,0,0.21-0.01c0.02,0,0.04,0,0.07,0
		c0.3-0.01,0.6-0.01,0.9,0c0.03,0,0.07,0.01,0.1,0.01c0.03,0,0.06,0,0.09,0.01c0.08,0,0.17,0,0.25,0.02c0.02,0,0.03,0,0.05,0
		c0.06,0,0.11,0,0.17,0.02c0.02,0,0.04,0,0.06,0c0.03,0,0.07,0.01,0.1,0.01c0.01,0,0.02,0,0.03,0c0.1,0.01,0.2,0.02,0.29,0.04
		c0.1,0.01,0.21,0.03,0.31,0.05c0.11,0.02,0.23,0.04,0.34,0.06c0.17,0.04,0.34,0.07,0.5,0.11c0.14,0.03,0.27,0.07,0.41,0.11
		c0.02,0.01,0.04,0.02,0.06,0.03c0.1,0.07,0.2,0.13,0.3,0.2c0.29,0.19,0.57,0.37,0.86,0.56c0.17,0.11,0.34,0.22,0.51,0.33
		c0.01,0.01,0.02,0.02,0.03,0.02c0.01,0.01,0.02,0.03,0.01,0.04c-0.05,0.07-0.1,0.14-0.15,0.21c-0.15,0.21-0.3,0.41-0.45,0.62
		c-0.13,0.17-0.25,0.34-0.38,0.52C18.94,3.3,18.93,3.31,18.91,3.3z"/>
	<path class="st0" d="M23.81,14.02c0-0.02,0-0.03,0.01-0.05c0.08-0.24,0.14-0.49,0.19-0.74c0.04-0.2,0.08-0.39,0.11-0.59
		c0.02-0.13,0.04-0.25,0.05-0.38c0.01-0.11,0.02-0.23,0.03-0.34c0.03-0.33,0.02-0.66,0.02-0.98c0-0.17-0.02-0.33-0.03-0.5
		c-0.01-0.07-0.01-0.15-0.02-0.22c-0.01-0.12-0.03-0.23-0.05-0.35c-0.03-0.2-0.07-0.4-0.11-0.6c-0.09-0.38-0.19-0.75-0.33-1.12
		c-0.04-0.1-0.08-0.2-0.12-0.3c-0.01-0.01-0.01-0.03-0.01-0.05c0.04,0,0.07,0,0.1,0c0.1-0.02,0.2-0.04,0.3-0.05
		c0.11-0.02,0.22-0.04,0.33-0.06c0.1-0.02,0.2-0.04,0.3-0.05c0.12-0.02,0.23-0.04,0.35-0.07c0.01,0,0.03-0.01,0.04-0.01
		c0.05,0,0.09-0.02,0.12-0.06c0.09-0.1,0.18-0.2,0.27-0.3c0.01-0.01,0.02-0.02,0.03-0.04c0.05-0.06,0.1-0.11,0.15-0.17
		c0.02-0.03,0.05-0.05,0.07-0.07c0.01,0,0.01,0,0.02,0c0.01,0.01,0.02,0.03,0.02,0.04c0.06,0.14,0.11,0.28,0.17,0.42
		c0.09,0.24,0.18,0.49,0.25,0.73c0.04,0.14,0.08,0.29,0.12,0.43c0.04,0.14,0.07,0.28,0.1,0.42c0.03,0.15,0.06,0.29,0.09,0.44
		c0.02,0.1,0.04,0.2,0.05,0.3c0.01,0.06,0.02,0.13,0.03,0.19c0.01,0.08,0.02,0.15,0.03,0.23c0,0.02,0,0.04,0.01,0.07
		c0,0.03,0.01,0.07,0.01,0.1c0,0.02,0,0.04,0.01,0.07c0,0.06,0.01,0.12,0.02,0.18c0.01,0.06,0,0.11,0.01,0.17
		c0,0.04,0.01,0.08,0.01,0.11c0,0.03,0,0.05,0,0.08c0,0.26,0,0.52,0,0.78c0,0.02,0,0.04,0,0.06c-0.01,0.07-0.01,0.15-0.01,0.22
		c0,0.04,0,0.09-0.01,0.13c0,0.01,0,0.01,0,0.02c0,0.09-0.01,0.18-0.02,0.28c-0.01,0.08-0.02,0.15-0.03,0.23
		c-0.01,0.07-0.02,0.13-0.03,0.2c-0.02,0.1-0.03,0.21-0.05,0.31c-0.05,0.3-0.12,0.59-0.2,0.88c-0.06,0.22-0.12,0.43-0.19,0.64
		c0,0.01-0.01,0.02-0.01,0.03c0,0.01-0.02,0.01-0.02,0.01c-0.01-0.01-0.02-0.02-0.03-0.03c-0.06-0.06-0.12-0.13-0.18-0.19
		c-0.11-0.12-0.23-0.24-0.35-0.36c-0.01-0.01-0.01-0.01-0.02-0.02c-0.01-0.01-0.02-0.01-0.03-0.01c-0.03,0-0.05,0-0.08,0
		c-0.18,0-0.36,0-0.55-0.01c-0.04,0-0.09,0-0.13-0.01c-0.03,0-0.06,0-0.09,0c-0.2,0-0.4,0-0.59-0.01c-0.03,0-0.06,0-0.09,0
		C23.82,14.03,23.81,14.03,23.81,14.02z"/>
	<path class="st0" d="M19.75,14.69c0,0.01,0.01,0.02,0.01,0.03c0,0.02,0,0.04,0,0.07c0,0.31,0,0.61,0,0.92c0,0.04,0,0.08,0,0.11
		c-0.02,0.22-0.19,0.49-0.5,0.56c-0.06,0.01-0.11,0.02-0.17,0.02c-0.67,0-1.34,0-2.01,0c-0.02,0-0.04,0-0.07,0
		c-0.02,0-0.03-0.01-0.03-0.03c0-0.03,0-0.06,0-0.09c0-0.31,0-0.62,0-0.94c0-0.01,0-0.02,0.01-0.03c0.07-0.08,0.14-0.16,0.21-0.23
		c0.08-0.09,0.16-0.18,0.23-0.27c0.01-0.01,0.01-0.01,0.02-0.02c0.14-0.16,0.28-0.32,0.42-0.48c0,0,0.01-0.01,0.01-0.01
		c0.01-0.01,0.03-0.01,0.04,0c0.05,0.03,0.1,0.06,0.15,0.09c0.28,0.17,0.55,0.34,0.83,0.51c0.01,0,0.01,0.01,0.02,0.01
		c0.03,0.02,0.06,0.02,0.09,0.01c0.16-0.05,0.32-0.1,0.48-0.15c0.07-0.02,0.13-0.04,0.2-0.06C19.7,14.69,19.72,14.69,19.75,14.69z"
		/>
	<path class="st0" d="M13.45,15.51c0,0.02,0.01,0.03,0.01,0.05c0,0.25,0,0.51,0,0.76c0,0.01,0,0.02,0,0.03
		c0,0.02-0.01,0.04-0.03,0.04c-0.02,0-0.04,0-0.07,0c-0.42,0-0.83,0-1.25,0c-0.03,0-0.06,0.01-0.09-0.01c0-0.02,0.02-0.03,0.03-0.03
		c0.07-0.04,0.15-0.09,0.22-0.13c0.24-0.15,0.48-0.29,0.73-0.44c0.13-0.08,0.27-0.16,0.4-0.24C13.41,15.53,13.43,15.51,13.45,15.51z
		"/>
	<path class="st1" d="M19.75,14.03c0.01-0.03,0.01-0.06,0.01-0.09c0-0.33,0-0.66,0-0.99c0-0.03,0-0.06,0-0.09
		c0-0.01,0.01-0.02,0.01-0.04c0.01,0.01,0.03,0.02,0.04,0.03c0.28,0.26,0.56,0.52,0.84,0.78c0.02,0.02,0.03,0.03,0.05,0.05
		c0.01,0.01,0,0.02-0.01,0.02c-0.13,0.05-0.27,0.1-0.4,0.14c-0.16,0.06-0.32,0.11-0.49,0.17C19.78,14.04,19.77,14.04,19.75,14.03z"
		/>
	<path class="st0" d="M16.06,16.36c0-0.01-0.01-0.01,0-0.02c0.01-0.01,0.01-0.03,0.02-0.04c0.04-0.05,0.06-0.1,0.11-0.14
		c0.01,0.01,0.01,0.01,0.02,0.02c0,0,0,0.01,0,0.01C16.16,16.25,16.11,16.31,16.06,16.36L16.06,16.36z"/>
	<path class="st0" d="M7.88,8.45C7.82,8.44,7.78,8.4,7.74,8.37c0.05,0.01,0.1,0.02,0.15,0.05C7.88,8.43,7.88,8.44,7.88,8.45z"/>
	<path class="st2" d="M7.88,8.45c0-0.01,0-0.02,0-0.03C7.89,8.43,7.9,8.43,7.9,8.44c0.01,0.01,0,0.01,0,0.02
		C7.9,8.46,7.9,8.46,7.88,8.45C7.89,8.46,7.88,8.46,7.88,8.45z"/>
	<path class="st0" d="M11.25,9.2c0,0.01-0.01,0.02-0.02,0.02C11.23,9.21,11.24,9.2,11.25,9.2z"/>
	<path class="st0" d="M16.05,16.36c0,0.01-0.01,0.02-0.02,0.02c0,0,0,0,0,0C16.04,16.36,16.04,16.36,16.05,16.36
		C16.06,16.36,16.05,16.36,16.05,16.36z"/>
	<path class="st0" d="M16.01,16.4c0.01-0.01,0.02-0.01,0.02-0.02c0,0,0,0,0,0C16.03,16.38,16.02,16.39,16.01,16.4
		C16.02,16.39,16.01,16.4,16.01,16.4z"/>
	<polygon class="st0" points="16.02,16.39 16.01,16.4 16.01,16.4 	"/>
	<path class="st2" d="M14.52,7.73L14.52,7.73c0.01-0.01,0.02-0.02,0.04-0.02c0,0,0,0,0,0"/>
	<path class="st2" d="M14.6,7.67c0,0,0.01-0.01,0.01-0.01"/>
	<path class="st2" d="M14.52,7.73C14.52,7.73,14.52,7.73,14.52,7.73"/>
</g>
</svg>
